<?xml version="1.0" encoding="UTF-8"?>
<svg width="250px" height="250px" viewBox="0 0 112 109" version="1.1" xmlns="http://www.w3.org/2000/svg" xmlns:xlink="http://www.w3.org/1999/xlink">
    <title>KYC</title>
    <g id="Poster" stroke="none" stroke-width="1" fill="none" fill-rule="evenodd">
        <g id="Poster-2_2" transform="translate(-353.000000, -371.000000)">
            <g id="KYC" transform="translate(353.000000, 371.000000)">
                <path d="M8,0 L104,0 C108.418278,-8.11624501e-16 112,3.581722 112,8 L112,109 L112,109 L0,109 L0,8 C-5.41083001e-16,3.581722 3.581722,8.11624501e-16 8,0 Z" id="Rectangle" fill="#DFE1E4"></path>
                <path d="M11.2,3 L100.8,3 C105.218278,3 108.8,6.581722 108.8,11 L108.8,109 L108.8,109 L3.2,109 L3.2,11 C3.2,6.581722 6.781722,3 11.2,3 Z" id="Rectangle" fill="#FFFFFF"></path>
                <rect id="Rectangle" fill="#DFE1E4" x="26" y="31" width="76" height="2" rx="1"></rect>
                <rect id="Rectangle" fill="#DFE1E4" x="26" y="37" width="51" height="2" rx="1"></rect>
                <text id="Aadhaar-Card" font-family="ProductSans-Bold, Product Sans" font-size="8" font-weight="bold" fill="#000000">
                    <tspan x="26" y="25">Aadhaar Card</tspan>
                </text>
                <rect id="Rectangle" fill="#DFE1E4" x="26" y="60" width="76" height="2" rx="1"></rect>
                <rect id="Rectangle" fill="#DFE1E4" x="26" y="66" width="51" height="2" rx="1"></rect>
                <text id="PAN-Card" font-family="ProductSans-Bold, Product Sans" font-size="8" font-weight="bold" fill="#000000">
                    <tspan x="26" y="54">PAN Card</tspan>
                </text>
                <rect id="Rectangle" fill="#DFE1E4" x="26" y="91" width="76" height="2" rx="1"></rect>
                <rect id="Rectangle" fill="#DFE1E4" x="26" y="97" width="51" height="2" rx="1"></rect>
                <text id="Bank-Account" font-family="ProductSans-Bold, Product Sans" font-size="8" font-weight="bold" fill="#000000">
                    <tspan x="26" y="85">Bank Account</tspan>
                </text>
                <line x1="17.5" y1="25.5" x2="17.5" y2="108.5" id="Line" stroke="#DFE1E4" stroke-width="0.5" stroke-linecap="square"></line>
                <g id="accept" transform="translate(15.000000, 21.000000)">
                    <path d="M2.5,0 C1.12109375,0 0,1.12109375 0,2.5 C0,3.87890625 1.12109375,5 2.5,5 C3.87890625,5 5,3.87890625 5,2.5 C5,1.12109375 3.87890625,0 2.5,0 Z" id="Path" fill="#2CB77C"></path>
                    <path d="M2.01855469,3.64355469 C1.69921875,3.32421875 1.38183594,3.00195313 1.06152344,2.68261719 C1.02636719,2.64746094 1.02636719,2.58886719 1.06152344,2.55371094 L1.4296875,2.18554688 C1.46484375,2.15039063 1.5234375,2.15039063 1.55859375,2.18554688 L2.08496094,2.71191406 L3.43847656,1.35742188 C3.47460938,1.32226563 3.53222656,1.32226563 3.56835938,1.35742188 L3.9375,1.7265625 C3.97363281,1.76269531 3.97363281,1.8203125 3.9375,1.85546875 L2.14746094,3.64355469 C2.11230469,3.6796875 2.0546875,3.6796875 2.01855469,3.64355469 Z" id="Path" fill="#FFFFFF" fill-rule="nonzero"></path>
                </g>
                <g id="accept" transform="translate(15.000000, 50.000000)">
                    <path d="M2.5,0 C1.12109375,0 0,1.12109375 0,2.5 C0,3.87890625 1.12109375,5 2.5,5 C3.87890625,5 5,3.87890625 5,2.5 C5,1.12109375 3.87890625,0 2.5,0 Z" id="Path" fill="#2CB77C"></path>
                    <path d="M2.01855469,3.64355469 C1.69921875,3.32421875 1.38183594,3.00195313 1.06152344,2.68261719 C1.02636719,2.64746094 1.02636719,2.58886719 1.06152344,2.55371094 L1.4296875,2.18554688 C1.46484375,2.15039063 1.5234375,2.15039063 1.55859375,2.18554688 L2.08496094,2.71191406 L3.43847656,1.35742188 C3.47460938,1.32226563 3.53222656,1.32226563 3.56835938,1.35742188 L3.9375,1.7265625 C3.97363281,1.76269531 3.97363281,1.8203125 3.9375,1.85546875 L2.14746094,3.64355469 C2.11230469,3.6796875 2.0546875,3.6796875 2.01855469,3.64355469 Z" id="Path" fill="#FFFFFF" fill-rule="nonzero"></path>
                </g>
                <g id="accept" transform="translate(15.000000, 80.000000)">
                    <path d="M2.5,0 C1.12109375,0 0,1.12109375 0,2.5 C0,3.87890625 1.12109375,5 2.5,5 C3.87890625,5 5,3.87890625 5,2.5 C5,1.12109375 3.87890625,0 2.5,0 Z" id="Path" fill="#2CB77C"></path>
                    <path d="M2.01855469,3.64355469 C1.69921875,3.32421875 1.38183594,3.00195313 1.06152344,2.68261719 C1.02636719,2.64746094 1.02636719,2.58886719 1.06152344,2.55371094 L1.4296875,2.18554688 C1.46484375,2.15039063 1.5234375,2.15039063 1.55859375,2.18554688 L2.08496094,2.71191406 L3.43847656,1.35742188 C3.47460938,1.32226563 3.53222656,1.32226563 3.56835938,1.35742188 L3.9375,1.7265625 C3.97363281,1.76269531 3.97363281,1.8203125 3.9375,1.85546875 L2.14746094,3.64355469 C2.11230469,3.6796875 2.0546875,3.6796875 2.01855469,3.64355469 Z" id="Path" fill="#FFFFFF" fill-rule="nonzero"></path>
                </g>
            </g>
        </g>
    </g>
</svg>