<?xml version="1.0" encoding="UTF-8"?>
<svg width="100%" height="100%" viewBox="0 0 112 109" version="1.1" xmlns="http://www.w3.org/2000/svg" xmlns:xlink="http://www.w3.org/1999/xlink">
    <title>KYC</title>
    <g id="Poster" stroke="none" stroke-width="1" fill="none" fill-rule="evenodd">
        <g id="Poster-2_2" transform="translate(-353.000000, -371.000000)">
            <g id="KYC" transform="translate(353.000000, 371.000000)">
                <path d="M8,0 L104,0 C108.418278,-8.11624501e-16 112,3.581722 112,8 L112,109 L112,109 L0,109 L0,8 C-5.41083001e-16,3.581722 3.581722,8.11624501e-16 8,0 Z" id="Rectangle" fill="#DFE1E4"></path>
                <path d="M11.2,3 L100.8,3 C105.218278,3 108.8,6.581722 108.8,11 L108.8,109 L108.8,109 L3.2,109 L3.2,11 C3.2,6.581722 6.781722,3 11.2,3 Z" id="Rectangle" fill="#FFFFFF"></path>
                <rect id="Rectangle" fill="#DFE1E4" x="26" y="31" width="76" height="2" rx="1"></rect>
                <rect id="Rectangle" fill="#DFE1E4" x="26" y="37" width="51" height="2" rx="1"></rect>
                <path d="M28.248,19.272 L29.48,19.272 L31.632,25 L30.44,25 L29.968,23.632 L27.76,23.632 L27.288,25 L26.096,25 L28.248,19.272 Z M29.616,22.64 L29.104,21.208 L28.896,20.512 L28.832,20.512 L28.624,21.208 L28.112,22.64 L29.616,22.64 Z" id="Shape" fill="#000000" fill-rule="nonzero"></path>
                <path d="M34.592,24.584 L34.528,24.584 C34.4053333,24.7333333 34.2573333,24.8613333 34.084,24.968 C33.9106667,25.0746667 33.688,25.128 33.416,25.128 C33.2133333,25.128 33.0226667,25.0946667 32.844,25.028 C32.6653333,24.9613333 32.5093333,24.8693333 32.376,24.752 C32.2426667,24.6346667 32.1386667,24.4933333 32.064,24.328 C31.9893333,24.1626667 31.952,23.9813333 31.952,23.784 C31.952,23.5813333 31.992,23.3986667 32.072,23.236 C32.152,23.0733333 32.264,22.9333333 32.408,22.816 C32.552,22.6986667 32.7213333,22.6093333 32.916,22.548 C33.1106667,22.4866667 33.3226667,22.456 33.552,22.456 C33.808,22.456 34.0186667,22.476 34.184,22.516 C34.3493333,22.556 34.4853333,22.5973333 34.592,22.64 L34.592,22.52 C34.592,22.312 34.5093333,22.14 34.344,22.004 C34.1786667,21.868 33.9733333,21.8 33.728,21.8 C33.3653333,21.8 33.0586667,21.952 32.808,22.256 L32.048,21.736 C32.464,21.2133333 33.032,20.952 33.752,20.952 C34.36,20.952 34.824,21.0946667 35.144,21.38 C35.464,21.6653333 35.624,22.088 35.624,22.648 L35.624,25 L34.592,25 L34.592,24.584 Z M34.592,23.408 C34.4693333,23.3493333 34.3426667,23.3026667 34.212,23.268 C34.0813333,23.2333333 33.9386667,23.216 33.784,23.216 C33.5333333,23.216 33.34,23.2706667 33.204,23.38 C33.068,23.4893333 33,23.624 33,23.784 C33,23.944 33.0653333,24.072 33.196,24.168 C33.3266667,24.264 33.4773333,24.312 33.648,24.312 C33.7866667,24.312 33.9146667,24.2866667 34.032,24.236 C34.1493333,24.1853333 34.2493333,24.1186667 34.332,24.036 C34.4146667,23.9533333 34.4786667,23.8573333 34.524,23.748 C34.5693333,23.6386667 34.592,23.5253333 34.592,23.408 Z" id="Shape" fill="#000000" fill-rule="nonzero"></path>
                <path d="M39.336,24.528 L39.272,24.528 C39.176,24.6933333 39.0266667,24.8346667 38.824,24.952 C38.6213333,25.0693333 38.3706667,25.128 38.072,25.128 C37.8213333,25.128 37.5826667,25.076 37.356,24.972 C37.1293333,24.868 36.9293333,24.724 36.756,24.54 C36.5826667,24.356 36.4453333,24.136 36.344,23.88 C36.2426667,23.624 36.192,23.344 36.192,23.04 C36.192,22.736 36.2426667,22.456 36.344,22.2 C36.4453333,21.944 36.5826667,21.724 36.756,21.54 C36.9293333,21.356 37.1293333,21.212 37.356,21.108 C37.5826667,21.004 37.8213333,20.952 38.072,20.952 C38.3706667,20.952 38.6213333,21.0106667 38.824,21.128 C39.0266667,21.2453333 39.176,21.3866667 39.272,21.552 L39.336,21.552 L39.272,20.992 L39.272,19.272 L40.32,19.272 L40.32,25 L39.336,25 L39.336,24.528 Z M38.288,24.16 C38.4266667,24.16 38.5586667,24.1346667 38.684,24.084 C38.8093333,24.0333333 38.92,23.96 39.016,23.864 C39.112,23.768 39.1893333,23.6506667 39.248,23.512 C39.3066667,23.3733333 39.336,23.216 39.336,23.04 C39.336,22.864 39.3066667,22.7066667 39.248,22.568 C39.1893333,22.4293333 39.112,22.312 39.016,22.216 C38.92,22.12 38.8093333,22.0466667 38.684,21.996 C38.5586667,21.9453333 38.4266667,21.92 38.288,21.92 C38.1493333,21.92 38.0173333,21.9466667 37.892,22 C37.7666667,22.0533333 37.656,22.128 37.56,22.224 C37.464,22.32 37.3866667,22.4373333 37.328,22.576 C37.2693333,22.7146667 37.24,22.8693333 37.24,23.04 C37.24,23.2106667 37.2693333,23.3653333 37.328,23.504 C37.3866667,23.6426667 37.464,23.76 37.56,23.856 C37.656,23.952 37.7666667,24.0266667 37.892,24.08 C38.0173333,24.1333333 38.1493333,24.16 38.288,24.16 Z" id="Shape" fill="#000000" fill-rule="nonzero"></path>
                <path d="M41.216,19.272 L42.264,19.272 L42.264,20.88 L42.2,21.592 L42.264,21.592 C42.376,21.4053333 42.5373333,21.252 42.748,21.132 C42.9586667,21.012 43.1946667,20.952 43.456,20.952 C43.9626667,20.952 44.3373333,21.1013333 44.58,21.4 C44.8226667,21.6986667 44.944,22.1066667 44.944,22.624 L44.944,25 L43.896,25 L43.896,22.752 C43.896,22.48 43.832,22.2733333 43.704,22.132 C43.576,21.9906667 43.3973333,21.92 43.168,21.92 C43.024,21.92 42.896,21.9506667 42.784,22.012 C42.672,22.0733333 42.5773333,22.1573333 42.5,22.264 C42.4226667,22.3706667 42.364,22.4946667 42.324,22.636 C42.284,22.7773333 42.264,22.928 42.264,23.088 L42.264,25 L41.216,25 L41.216,19.272 Z" id="Path" fill="#000000" fill-rule="nonzero"></path>
                <path d="M48.184,24.584 L48.12,24.584 C47.9973333,24.7333333 47.8493333,24.8613333 47.676,24.968 C47.5026667,25.0746667 47.28,25.128 47.008,25.128 C46.8053333,25.128 46.6146667,25.0946667 46.436,25.028 C46.2573333,24.9613333 46.1013333,24.8693333 45.968,24.752 C45.8346667,24.6346667 45.7306667,24.4933333 45.656,24.328 C45.5813333,24.1626667 45.544,23.9813333 45.544,23.784 C45.544,23.5813333 45.584,23.3986667 45.664,23.236 C45.744,23.0733333 45.856,22.9333333 46,22.816 C46.144,22.6986667 46.3133333,22.6093333 46.508,22.548 C46.7026667,22.4866667 46.9146667,22.456 47.144,22.456 C47.4,22.456 47.6106667,22.476 47.776,22.516 C47.9413333,22.556 48.0773333,22.5973333 48.184,22.64 L48.184,22.52 C48.184,22.312 48.1013333,22.14 47.936,22.004 C47.7706667,21.868 47.5653333,21.8 47.32,21.8 C46.9573333,21.8 46.6506667,21.952 46.4,22.256 L45.64,21.736 C46.056,21.2133333 46.624,20.952 47.344,20.952 C47.952,20.952 48.416,21.0946667 48.736,21.38 C49.056,21.6653333 49.216,22.088 49.216,22.648 L49.216,25 L48.184,25 L48.184,24.584 Z M48.184,23.408 C48.0613333,23.3493333 47.9346667,23.3026667 47.804,23.268 C47.6733333,23.2333333 47.5306667,23.216 47.376,23.216 C47.1253333,23.216 46.932,23.2706667 46.796,23.38 C46.66,23.4893333 46.592,23.624 46.592,23.784 C46.592,23.944 46.6573333,24.072 46.788,24.168 C46.9186667,24.264 47.0693333,24.312 47.24,24.312 C47.3786667,24.312 47.5066667,24.2866667 47.624,24.236 C47.7413333,24.1853333 47.8413333,24.1186667 47.924,24.036 C48.0066667,23.9533333 48.0706667,23.8573333 48.116,23.748 C48.1613333,23.6386667 48.184,23.5253333 48.184,23.408 Z" id="Shape" fill="#000000" fill-rule="nonzero"></path>
                <path d="M52.424,24.584 L52.36,24.584 C52.2373333,24.7333333 52.0893333,24.8613333 51.916,24.968 C51.7426667,25.0746667 51.52,25.128 51.248,25.128 C51.0453333,25.128 50.8546667,25.0946667 50.676,25.028 C50.4973333,24.9613333 50.3413333,24.8693333 50.208,24.752 C50.0746667,24.6346667 49.9706667,24.4933333 49.896,24.328 C49.8213333,24.1626667 49.784,23.9813333 49.784,23.784 C49.784,23.5813333 49.824,23.3986667 49.904,23.236 C49.984,23.0733333 50.096,22.9333333 50.24,22.816 C50.384,22.6986667 50.5533333,22.6093333 50.748,22.548 C50.9426667,22.4866667 51.1546667,22.456 51.384,22.456 C51.64,22.456 51.8506667,22.476 52.016,22.516 C52.1813333,22.556 52.3173333,22.5973333 52.424,22.64 L52.424,22.52 C52.424,22.312 52.3413333,22.14 52.176,22.004 C52.0106667,21.868 51.8053333,21.8 51.56,21.8 C51.1973333,21.8 50.8906667,21.952 50.64,22.256 L49.88,21.736 C50.296,21.2133333 50.864,20.952 51.584,20.952 C52.192,20.952 52.656,21.0946667 52.976,21.38 C53.296,21.6653333 53.456,22.088 53.456,22.648 L53.456,25 L52.424,25 L52.424,24.584 Z M52.424,23.408 C52.3013333,23.3493333 52.1746667,23.3026667 52.044,23.268 C51.9133333,23.2333333 51.7706667,23.216 51.616,23.216 C51.3653333,23.216 51.172,23.2706667 51.036,23.38 C50.9,23.4893333 50.832,23.624 50.832,23.784 C50.832,23.944 50.8973333,24.072 51.028,24.168 C51.1586667,24.264 51.3093333,24.312 51.48,24.312 C51.6186667,24.312 51.7466667,24.2866667 51.864,24.236 C51.9813333,24.1853333 52.0813333,24.1186667 52.164,24.036 C52.2466667,23.9533333 52.3106667,23.8573333 52.356,23.748 C52.4013333,23.6386667 52.424,23.5253333 52.424,23.408 Z" id="Shape" fill="#000000" fill-rule="nonzero"></path>
                <path d="M54.288,21.08 L55.272,21.08 L55.272,21.624 L55.336,21.624 C55.384,21.528 55.448,21.44 55.528,21.36 C55.608,21.28 55.6973333,21.2106667 55.796,21.152 C55.8946667,21.0933333 56.0013333,21.048 56.116,21.016 C56.2306667,20.984 56.344,20.968 56.456,20.968 C56.5946667,20.968 56.7133333,20.9813333 56.812,21.008 C56.9106667,21.0346667 56.9946667,21.0693333 57.064,21.112 L56.784,22.064 C56.72,22.032 56.6493333,22.0066667 56.572,21.988 C56.4946667,21.9693333 56.4,21.96 56.288,21.96 C56.144,21.96 56.0133333,21.988 55.896,22.044 C55.7786667,22.1 55.6786667,22.1786667 55.596,22.28 C55.5133333,22.3813333 55.4493333,22.5 55.404,22.636 C55.3586667,22.772 55.336,22.92 55.336,23.08 L55.336,25 L54.288,25 L54.288,21.08 Z" id="Path" fill="#000000" fill-rule="nonzero"></path>
                <path d="M64.28,24.08 C63.9973333,24.4213333 63.664,24.6813333 63.28,24.86 C62.896,25.0386667 62.4666667,25.128 61.992,25.128 C61.5653333,25.128 61.1693333,25.0506667 60.804,24.896 C60.4386667,24.7413333 60.1226667,24.5306667 59.856,24.264 C59.5893333,23.9973333 59.3786667,23.6813333 59.224,23.316 C59.0693333,22.9506667 58.992,22.5573333 58.992,22.136 C58.992,21.7146667 59.0693333,21.3213333 59.224,20.956 C59.3786667,20.5906667 59.5893333,20.2746667 59.856,20.008 C60.1226667,19.7413333 60.4386667,19.5306667 60.804,19.376 C61.1693333,19.2213333 61.5653333,19.144 61.992,19.144 C62.4506667,19.144 62.8546667,19.224 63.204,19.384 C63.5533333,19.544 63.864,19.776 64.136,20.08 L63.376,20.816 C63.2053333,20.6186667 63.0093333,20.4613333 62.788,20.344 C62.5666667,20.2266667 62.304,20.168 62,20.168 C61.7333333,20.168 61.4826667,20.2146667 61.248,20.308 C61.0133333,20.4013333 60.8093333,20.5333333 60.636,20.704 C60.4626667,20.8746667 60.3253333,21.0813333 60.224,21.324 C60.1226667,21.5666667 60.072,21.8373333 60.072,22.136 C60.072,22.4346667 60.1226667,22.7053333 60.224,22.948 C60.3253333,23.1906667 60.4626667,23.3973333 60.636,23.568 C60.8093333,23.7386667 61.0133333,23.8706667 61.248,23.964 C61.4826667,24.0573333 61.7333333,24.104 62,24.104 C62.32,24.104 62.604,24.0386667 62.852,23.908 C63.1,23.7773333 63.32,23.592 63.512,23.352 L64.28,24.08 Z" id="Path" fill="#000000" fill-rule="nonzero"></path>
                <path d="M67.272,24.584 L67.208,24.584 C67.0853333,24.7333333 66.9373333,24.8613333 66.764,24.968 C66.5906667,25.0746667 66.368,25.128 66.096,25.128 C65.8933333,25.128 65.7026667,25.0946667 65.524,25.028 C65.3453333,24.9613333 65.1893333,24.8693333 65.056,24.752 C64.9226667,24.6346667 64.8186667,24.4933333 64.744,24.328 C64.6693333,24.1626667 64.632,23.9813333 64.632,23.784 C64.632,23.5813333 64.672,23.3986667 64.752,23.236 C64.832,23.0733333 64.944,22.9333333 65.088,22.816 C65.232,22.6986667 65.4013333,22.6093333 65.596,22.548 C65.7906667,22.4866667 66.0026667,22.456 66.232,22.456 C66.488,22.456 66.6986667,22.476 66.864,22.516 C67.0293333,22.556 67.1653333,22.5973333 67.272,22.64 L67.272,22.52 C67.272,22.312 67.1893333,22.14 67.024,22.004 C66.8586667,21.868 66.6533333,21.8 66.408,21.8 C66.0453333,21.8 65.7386667,21.952 65.488,22.256 L64.728,21.736 C65.144,21.2133333 65.712,20.952 66.432,20.952 C67.04,20.952 67.504,21.0946667 67.824,21.38 C68.144,21.6653333 68.304,22.088 68.304,22.648 L68.304,25 L67.272,25 L67.272,24.584 Z M67.272,23.408 C67.1493333,23.3493333 67.0226667,23.3026667 66.892,23.268 C66.7613333,23.2333333 66.6186667,23.216 66.464,23.216 C66.2133333,23.216 66.02,23.2706667 65.884,23.38 C65.748,23.4893333 65.68,23.624 65.68,23.784 C65.68,23.944 65.7453333,24.072 65.876,24.168 C66.0066667,24.264 66.1573333,24.312 66.328,24.312 C66.4666667,24.312 66.5946667,24.2866667 66.712,24.236 C66.8293333,24.1853333 66.9293333,24.1186667 67.012,24.036 C67.0946667,23.9533333 67.1586667,23.8573333 67.204,23.748 C67.2493333,23.6386667 67.272,23.5253333 67.272,23.408 Z" id="Shape" fill="#000000" fill-rule="nonzero"></path>
                <path d="M69.136,21.08 L70.12,21.08 L70.12,21.624 L70.184,21.624 C70.232,21.528 70.296,21.44 70.376,21.36 C70.456,21.28 70.5453333,21.2106667 70.644,21.152 C70.7426667,21.0933333 70.8493333,21.048 70.964,21.016 C71.0786667,20.984 71.192,20.968 71.304,20.968 C71.4426667,20.968 71.5613333,20.9813333 71.66,21.008 C71.7586667,21.0346667 71.8426667,21.0693333 71.912,21.112 L71.632,22.064 C71.568,22.032 71.4973333,22.0066667 71.42,21.988 C71.3426667,21.9693333 71.248,21.96 71.136,21.96 C70.992,21.96 70.8613333,21.988 70.744,22.044 C70.6266667,22.1 70.5266667,22.1786667 70.444,22.28 C70.3613333,22.3813333 70.2973333,22.5 70.252,22.636 C70.2066667,22.772 70.184,22.92 70.184,23.08 L70.184,25 L69.136,25 L69.136,21.08 Z" id="Path" fill="#000000" fill-rule="nonzero"></path>
                <path d="M75.072,24.528 L75.008,24.528 C74.912,24.6933333 74.7626667,24.8346667 74.56,24.952 C74.3573333,25.0693333 74.1066667,25.128 73.808,25.128 C73.5573333,25.128 73.3186667,25.076 73.092,24.972 C72.8653333,24.868 72.6653333,24.724 72.492,24.54 C72.3186667,24.356 72.1813333,24.136 72.08,23.88 C71.9786667,23.624 71.928,23.344 71.928,23.04 C71.928,22.736 71.9786667,22.456 72.08,22.2 C72.1813333,21.944 72.3186667,21.724 72.492,21.54 C72.6653333,21.356 72.8653333,21.212 73.092,21.108 C73.3186667,21.004 73.5573333,20.952 73.808,20.952 C74.1066667,20.952 74.3573333,21.0106667 74.56,21.128 C74.7626667,21.2453333 74.912,21.3866667 75.008,21.552 L75.072,21.552 L75.008,20.992 L75.008,19.272 L76.056,19.272 L76.056,25 L75.072,25 L75.072,24.528 Z M74.024,24.16 C74.1626667,24.16 74.2946667,24.1346667 74.42,24.084 C74.5453333,24.0333333 74.656,23.96 74.752,23.864 C74.848,23.768 74.9253333,23.6506667 74.984,23.512 C75.0426667,23.3733333 75.072,23.216 75.072,23.04 C75.072,22.864 75.0426667,22.7066667 74.984,22.568 C74.9253333,22.4293333 74.848,22.312 74.752,22.216 C74.656,22.12 74.5453333,22.0466667 74.42,21.996 C74.2946667,21.9453333 74.1626667,21.92 74.024,21.92 C73.8853333,21.92 73.7533333,21.9466667 73.628,22 C73.5026667,22.0533333 73.392,22.128 73.296,22.224 C73.2,22.32 73.1226667,22.4373333 73.064,22.576 C73.0053333,22.7146667 72.976,22.8693333 72.976,23.04 C72.976,23.2106667 73.0053333,23.3653333 73.064,23.504 C73.1226667,23.6426667 73.2,23.76 73.296,23.856 C73.392,23.952 73.5026667,24.0266667 73.628,24.08 C73.7533333,24.1333333 73.8853333,24.16 74.024,24.16 Z" id="Shape" fill="#000000" fill-rule="nonzero"></path>
                <rect id="Rectangle" fill="#DFE1E4" x="26" y="60" width="76" height="2" rx="1"></rect>
                <rect id="Rectangle" fill="#DFE1E4" x="26" y="66" width="51" height="2" rx="1"></rect>
                <path d="M26.576,54 L26.576,48.272 L28.592,48.272 C28.864,48.272 29.1186667,48.316 29.356,48.404 C29.5933333,48.492 29.8,48.616 29.976,48.776 C30.152,48.936 30.2906667,49.1266667 30.392,49.348 C30.4933333,49.5693333 30.544,49.8133333 30.544,50.08 C30.544,50.352 30.4933333,50.5986667 30.392,50.82 C30.2906667,51.0413333 30.152,51.232 29.976,51.392 C29.8,51.552 29.5933333,51.676 29.356,51.764 C29.1186667,51.852 28.864,51.896 28.592,51.896 L27.656,51.896 L27.656,54 L26.576,54 Z M28.608,50.872 C28.8906667,50.872 29.104,50.792 29.248,50.632 C29.392,50.472 29.464,50.288 29.464,50.08 C29.464,49.9786667 29.4466667,49.88 29.412,49.784 C29.3773333,49.688 29.324,49.604 29.252,49.532 C29.18,49.46 29.0906667,49.4026667 28.984,49.36 C28.8773333,49.3173333 28.752,49.296 28.608,49.296 L27.656,49.296 L27.656,50.872 L28.608,50.872 Z" id="Shape" fill="#000000" fill-rule="nonzero"></path>
                <path d="M32.424,48.272 L33.656,48.272 L35.808,54 L34.616,54 L34.144,52.632 L31.936,52.632 L31.464,54 L30.272,54 L32.424,48.272 Z M33.792,51.64 L33.28,50.208 L33.072,49.512 L33.008,49.512 L32.8,50.208 L32.288,51.64 L33.792,51.64 Z" id="Shape" fill="#000000" fill-rule="nonzero"></path>
                <polygon id="Path" fill="#000000" fill-rule="nonzero" points="36.48 48.272 37.736 48.272 40.04 52.112 40.104 52.112 40.04 51.008 40.04 48.272 41.112 48.272 41.112 54 39.976 54 37.544 49.944 37.48 49.944 37.544 51.048 37.544 54 36.48 54"></polygon>
                <path d="M48.872,53.08 C48.5893333,53.4213333 48.256,53.6813333 47.872,53.86 C47.488,54.0386667 47.0586667,54.128 46.584,54.128 C46.1573333,54.128 45.7613333,54.0506667 45.396,53.896 C45.0306667,53.7413333 44.7146667,53.5306667 44.448,53.264 C44.1813333,52.9973333 43.9706667,52.6813333 43.816,52.316 C43.6613333,51.9506667 43.584,51.5573333 43.584,51.136 C43.584,50.7146667 43.6613333,50.3213333 43.816,49.956 C43.9706667,49.5906667 44.1813333,49.2746667 44.448,49.008 C44.7146667,48.7413333 45.0306667,48.5306667 45.396,48.376 C45.7613333,48.2213333 46.1573333,48.144 46.584,48.144 C47.0426667,48.144 47.4466667,48.224 47.796,48.384 C48.1453333,48.544 48.456,48.776 48.728,49.08 L47.968,49.816 C47.7973333,49.6186667 47.6013333,49.4613333 47.38,49.344 C47.1586667,49.2266667 46.896,49.168 46.592,49.168 C46.3253333,49.168 46.0746667,49.2146667 45.84,49.308 C45.6053333,49.4013333 45.4013333,49.5333333 45.228,49.704 C45.0546667,49.8746667 44.9173333,50.0813333 44.816,50.324 C44.7146667,50.5666667 44.664,50.8373333 44.664,51.136 C44.664,51.4346667 44.7146667,51.7053333 44.816,51.948 C44.9173333,52.1906667 45.0546667,52.3973333 45.228,52.568 C45.4013333,52.7386667 45.6053333,52.8706667 45.84,52.964 C46.0746667,53.0573333 46.3253333,53.104 46.592,53.104 C46.912,53.104 47.196,53.0386667 47.444,52.908 C47.692,52.7773333 47.912,52.592 48.104,52.352 L48.872,53.08 Z" id="Path" fill="#000000" fill-rule="nonzero"></path>
                <path d="M51.864,53.584 L51.8,53.584 C51.6773333,53.7333333 51.5293333,53.8613333 51.356,53.968 C51.1826667,54.0746667 50.96,54.128 50.688,54.128 C50.4853333,54.128 50.2946667,54.0946667 50.116,54.028 C49.9373333,53.9613333 49.7813333,53.8693333 49.648,53.752 C49.5146667,53.6346667 49.4106667,53.4933333 49.336,53.328 C49.2613333,53.1626667 49.224,52.9813333 49.224,52.784 C49.224,52.5813333 49.264,52.3986667 49.344,52.236 C49.424,52.0733333 49.536,51.9333333 49.68,51.816 C49.824,51.6986667 49.9933333,51.6093333 50.188,51.548 C50.3826667,51.4866667 50.5946667,51.456 50.824,51.456 C51.08,51.456 51.2906667,51.476 51.456,51.516 C51.6213333,51.556 51.7573333,51.5973333 51.864,51.64 L51.864,51.52 C51.864,51.312 51.7813333,51.14 51.616,51.004 C51.4506667,50.868 51.2453333,50.8 51,50.8 C50.6373333,50.8 50.3306667,50.952 50.08,51.256 L49.32,50.736 C49.736,50.2133333 50.304,49.952 51.024,49.952 C51.632,49.952 52.096,50.0946667 52.416,50.38 C52.736,50.6653333 52.896,51.088 52.896,51.648 L52.896,54 L51.864,54 L51.864,53.584 Z M51.864,52.408 C51.7413333,52.3493333 51.6146667,52.3026667 51.484,52.268 C51.3533333,52.2333333 51.2106667,52.216 51.056,52.216 C50.8053333,52.216 50.612,52.2706667 50.476,52.38 C50.34,52.4893333 50.272,52.624 50.272,52.784 C50.272,52.944 50.3373333,53.072 50.468,53.168 C50.5986667,53.264 50.7493333,53.312 50.92,53.312 C51.0586667,53.312 51.1866667,53.2866667 51.304,53.236 C51.4213333,53.1853333 51.5213333,53.1186667 51.604,53.036 C51.6866667,52.9533333 51.7506667,52.8573333 51.796,52.748 C51.8413333,52.6386667 51.864,52.5253333 51.864,52.408 Z" id="Shape" fill="#000000" fill-rule="nonzero"></path>
                <path d="M53.728,50.08 L54.712,50.08 L54.712,50.624 L54.776,50.624 C54.824,50.528 54.888,50.44 54.968,50.36 C55.048,50.28 55.1373333,50.2106667 55.236,50.152 C55.3346667,50.0933333 55.4413333,50.048 55.556,50.016 C55.6706667,49.984 55.784,49.968 55.896,49.968 C56.0346667,49.968 56.1533333,49.9813333 56.252,50.008 C56.3506667,50.0346667 56.4346667,50.0693333 56.504,50.112 L56.224,51.064 C56.16,51.032 56.0893333,51.0066667 56.012,50.988 C55.9346667,50.9693333 55.84,50.96 55.728,50.96 C55.584,50.96 55.4533333,50.988 55.336,51.044 C55.2186667,51.1 55.1186667,51.1786667 55.036,51.28 C54.9533333,51.3813333 54.8893333,51.5 54.844,51.636 C54.7986667,51.772 54.776,51.92 54.776,52.08 L54.776,54 L53.728,54 L53.728,50.08 Z" id="Path" fill="#000000" fill-rule="nonzero"></path>
                <path d="M59.664,53.528 L59.6,53.528 C59.504,53.6933333 59.3546667,53.8346667 59.152,53.952 C58.9493333,54.0693333 58.6986667,54.128 58.4,54.128 C58.1493333,54.128 57.9106667,54.076 57.684,53.972 C57.4573333,53.868 57.2573333,53.724 57.084,53.54 C56.9106667,53.356 56.7733333,53.136 56.672,52.88 C56.5706667,52.624 56.52,52.344 56.52,52.04 C56.52,51.736 56.5706667,51.456 56.672,51.2 C56.7733333,50.944 56.9106667,50.724 57.084,50.54 C57.2573333,50.356 57.4573333,50.212 57.684,50.108 C57.9106667,50.004 58.1493333,49.952 58.4,49.952 C58.6986667,49.952 58.9493333,50.0106667 59.152,50.128 C59.3546667,50.2453333 59.504,50.3866667 59.6,50.552 L59.664,50.552 L59.6,49.992 L59.6,48.272 L60.648,48.272 L60.648,54 L59.664,54 L59.664,53.528 Z M58.616,53.16 C58.7546667,53.16 58.8866667,53.1346667 59.012,53.084 C59.1373333,53.0333333 59.248,52.96 59.344,52.864 C59.44,52.768 59.5173333,52.6506667 59.576,52.512 C59.6346667,52.3733333 59.664,52.216 59.664,52.04 C59.664,51.864 59.6346667,51.7066667 59.576,51.568 C59.5173333,51.4293333 59.44,51.312 59.344,51.216 C59.248,51.12 59.1373333,51.0466667 59.012,50.996 C58.8866667,50.9453333 58.7546667,50.92 58.616,50.92 C58.4773333,50.92 58.3453333,50.9466667 58.22,51 C58.0946667,51.0533333 57.984,51.128 57.888,51.224 C57.792,51.32 57.7146667,51.4373333 57.656,51.576 C57.5973333,51.7146667 57.568,51.8693333 57.568,52.04 C57.568,52.2106667 57.5973333,52.3653333 57.656,52.504 C57.7146667,52.6426667 57.792,52.76 57.888,52.856 C57.984,52.952 58.0946667,53.0266667 58.22,53.08 C58.3453333,53.1333333 58.4773333,53.16 58.616,53.16 Z" id="Shape" fill="#000000" fill-rule="nonzero"></path>
                <rect id="Rectangle" fill="#DFE1E4" x="26" y="91" width="76" height="2" rx="1"></rect>
                <rect id="Rectangle" fill="#DFE1E4" x="26" y="97" width="51" height="2" rx="1"></rect>
                <path d="M26.576,79.272 L28.816,79.272 C29.0613333,79.272 29.2906667,79.3106667 29.504,79.388 C29.7173333,79.4653333 29.9026667,79.572 30.06,79.708 C30.2173333,79.844 30.3413333,80.0026667 30.432,80.184 C30.5226667,80.3653333 30.568,80.56 30.568,80.768 C30.568,81.072 30.4946667,81.3266667 30.348,81.532 C30.2013333,81.7373333 30.0186667,81.8933333 29.8,82 L29.8,82.064 C30.0933333,82.1706667 30.3293333,82.3373333 30.508,82.564 C30.6866667,82.7906667 30.776,83.072 30.776,83.408 C30.776,83.6533333 30.7266667,83.8733333 30.628,84.068 C30.5293333,84.2626667 30.3946667,84.4293333 30.224,84.568 C30.0533333,84.7066667 29.8546667,84.8133333 29.628,84.888 C29.4013333,84.9626667 29.1573333,85 28.896,85 L26.576,85 L26.576,79.272 Z M28.736,81.608 C28.9866667,81.608 29.18,81.54 29.316,81.404 C29.452,81.268 29.52,81.1066667 29.52,80.92 C29.52,80.7333333 29.4533333,80.5733333 29.32,80.44 C29.1866667,80.3066667 29.0026667,80.24 28.768,80.24 L27.656,80.24 L27.656,81.608 L28.736,81.608 Z M28.856,84.008 C29.128,84.008 29.336,83.94 29.48,83.804 C29.624,83.668 29.696,83.4933333 29.696,83.28 C29.696,83.0666667 29.6226667,82.8893333 29.476,82.748 C29.3293333,82.6066667 29.112,82.536 28.824,82.536 L27.656,82.536 L27.656,84.008 L28.856,84.008 Z" id="Shape" fill="#000000" fill-rule="nonzero"></path>
                <path d="M33.896,84.584 L33.832,84.584 C33.7093333,84.7333333 33.5613333,84.8613333 33.388,84.968 C33.2146667,85.0746667 32.992,85.128 32.72,85.128 C32.5173333,85.128 32.3266667,85.0946667 32.148,85.028 C31.9693333,84.9613333 31.8133333,84.8693333 31.68,84.752 C31.5466667,84.6346667 31.4426667,84.4933333 31.368,84.328 C31.2933333,84.1626667 31.256,83.9813333 31.256,83.784 C31.256,83.5813333 31.296,83.3986667 31.376,83.236 C31.456,83.0733333 31.568,82.9333333 31.712,82.816 C31.856,82.6986667 32.0253333,82.6093333 32.22,82.548 C32.4146667,82.4866667 32.6266667,82.456 32.856,82.456 C33.112,82.456 33.3226667,82.476 33.488,82.516 C33.6533333,82.556 33.7893333,82.5973333 33.896,82.64 L33.896,82.52 C33.896,82.312 33.8133333,82.14 33.648,82.004 C33.4826667,81.868 33.2773333,81.8 33.032,81.8 C32.6693333,81.8 32.3626667,81.952 32.112,82.256 L31.352,81.736 C31.768,81.2133333 32.336,80.952 33.056,80.952 C33.664,80.952 34.128,81.0946667 34.448,81.38 C34.768,81.6653333 34.928,82.088 34.928,82.648 L34.928,85 L33.896,85 L33.896,84.584 Z M33.896,83.408 C33.7733333,83.3493333 33.6466667,83.3026667 33.516,83.268 C33.3853333,83.2333333 33.2426667,83.216 33.088,83.216 C32.8373333,83.216 32.644,83.2706667 32.508,83.38 C32.372,83.4893333 32.304,83.624 32.304,83.784 C32.304,83.944 32.3693333,84.072 32.5,84.168 C32.6306667,84.264 32.7813333,84.312 32.952,84.312 C33.0906667,84.312 33.2186667,84.2866667 33.336,84.236 C33.4533333,84.1853333 33.5533333,84.1186667 33.636,84.036 C33.7186667,83.9533333 33.7826667,83.8573333 33.828,83.748 C33.8733333,83.6386667 33.896,83.5253333 33.896,83.408 Z" id="Shape" fill="#000000" fill-rule="nonzero"></path>
                <path d="M36.744,81.592 L36.808,81.592 C36.9306667,81.3946667 37.096,81.2386667 37.304,81.124 C37.512,81.0093333 37.7493333,80.952 38.016,80.952 C38.2613333,80.952 38.4773333,80.992 38.664,81.072 C38.8506667,81.152 39.004,81.2653333 39.124,81.412 C39.244,81.5586667 39.3346667,81.7346667 39.396,81.94 C39.4573333,82.1453333 39.488,82.3733333 39.488,82.624 L39.488,85 L38.44,85 L38.44,82.752 C38.44,82.4693333 38.3773333,82.26 38.252,82.124 C38.1266667,81.988 37.944,81.92 37.704,81.92 C37.56,81.92 37.4333333,81.9506667 37.324,82.012 C37.2146667,82.0733333 37.1213333,82.156 37.044,82.26 C36.9666667,82.364 36.908,82.4866667 36.868,82.628 C36.828,82.7693333 36.808,82.92 36.808,83.08 L36.808,85 L35.76,85 L35.76,81.08 L36.744,81.08 L36.744,81.592 Z" id="Path" fill="#000000" fill-rule="nonzero"></path>
                <polygon id="Path" fill="#000000" fill-rule="nonzero" points="40.352 79.272 41.4 79.272 41.4 82.392 41.448 82.392 42.76 81.08 44.056 81.08 44.056 81.144 42.6 82.56 44.176 84.936 44.176 85 42.936 85 41.864 83.28 41.4 83.736 41.4 85 40.352 85"></polygon>
                <path d="M47.912,79.272 L49.144,79.272 L51.296,85 L50.104,85 L49.632,83.632 L47.424,83.632 L46.952,85 L45.76,85 L47.912,79.272 Z M49.28,82.64 L48.768,81.208 L48.56,80.512 L48.496,80.512 L48.288,81.208 L47.776,82.64 L49.28,82.64 Z" id="Shape" fill="#000000" fill-rule="nonzero"></path>
                <path d="M55.44,84 C55.2693333,84.3306667 55.0306667,84.6013333 54.724,84.812 C54.4173333,85.0226667 54.0346667,85.128 53.576,85.128 C53.272,85.128 52.9933333,85.076 52.74,84.972 C52.4866667,84.868 52.268,84.7226667 52.084,84.536 C51.9,84.3493333 51.756,84.1293333 51.652,83.876 C51.548,83.6226667 51.496,83.344 51.496,83.04 C51.496,82.736 51.548,82.456 51.652,82.2 C51.756,81.944 51.9,81.724 52.084,81.54 C52.268,81.356 52.4866667,81.212 52.74,81.108 C52.9933333,81.004 53.272,80.952 53.576,80.952 C54.0293333,80.952 54.4106667,81.056 54.72,81.264 C55.0293333,81.472 55.256,81.7413333 55.4,82.072 L54.44,82.472 C54.3493333,82.2906667 54.2333333,82.1533333 54.092,82.06 C53.9506667,81.9666667 53.7733333,81.92 53.56,81.92 C53.4213333,81.92 53.2906667,81.9466667 53.168,82 C53.0453333,82.0533333 52.9373333,82.128 52.844,82.224 C52.7506667,82.32 52.6773333,82.4373333 52.624,82.576 C52.5706667,82.7146667 52.544,82.8693333 52.544,83.04 C52.544,83.2106667 52.5706667,83.3653333 52.624,83.504 C52.6773333,83.6426667 52.7506667,83.76 52.844,83.856 C52.9373333,83.952 53.0453333,84.0266667 53.168,84.08 C53.2906667,84.1333333 53.4213333,84.16 53.56,84.16 C53.7786667,84.16 53.964,84.1106667 54.116,84.012 C54.268,83.9133333 54.3893333,83.7706667 54.48,83.584 L55.44,84 Z" id="Path" fill="#000000" fill-rule="nonzero"></path>
                <path d="M59.76,84 C59.5893333,84.3306667 59.3506667,84.6013333 59.044,84.812 C58.7373333,85.0226667 58.3546667,85.128 57.896,85.128 C57.592,85.128 57.3133333,85.076 57.06,84.972 C56.8066667,84.868 56.588,84.7226667 56.404,84.536 C56.22,84.3493333 56.076,84.1293333 55.972,83.876 C55.868,83.6226667 55.816,83.344 55.816,83.04 C55.816,82.736 55.868,82.456 55.972,82.2 C56.076,81.944 56.22,81.724 56.404,81.54 C56.588,81.356 56.8066667,81.212 57.06,81.108 C57.3133333,81.004 57.592,80.952 57.896,80.952 C58.3493333,80.952 58.7306667,81.056 59.04,81.264 C59.3493333,81.472 59.576,81.7413333 59.72,82.072 L58.76,82.472 C58.6693333,82.2906667 58.5533333,82.1533333 58.412,82.06 C58.2706667,81.9666667 58.0933333,81.92 57.88,81.92 C57.7413333,81.92 57.6106667,81.9466667 57.488,82 C57.3653333,82.0533333 57.2573333,82.128 57.164,82.224 C57.0706667,82.32 56.9973333,82.4373333 56.944,82.576 C56.8906667,82.7146667 56.864,82.8693333 56.864,83.04 C56.864,83.2106667 56.8906667,83.3653333 56.944,83.504 C56.9973333,83.6426667 57.0706667,83.76 57.164,83.856 C57.2573333,83.952 57.3653333,84.0266667 57.488,84.08 C57.6106667,84.1333333 57.7413333,84.16 57.88,84.16 C58.0986667,84.16 58.284,84.1106667 58.436,84.012 C58.588,83.9133333 58.7093333,83.7706667 58.8,83.584 L59.76,84 Z" id="Path" fill="#000000" fill-rule="nonzero"></path>
                <path d="M62.216,80.952 C62.52,80.952 62.7986667,81.004 63.052,81.108 C63.3053333,81.212 63.524,81.356 63.708,81.54 C63.892,81.724 64.036,81.944 64.14,82.2 C64.244,82.456 64.296,82.736 64.296,83.04 C64.296,83.344 64.244,83.624 64.14,83.88 C64.036,84.136 63.892,84.356 63.708,84.54 C63.524,84.724 63.3053333,84.868 63.052,84.972 C62.7986667,85.076 62.52,85.128 62.216,85.128 C61.912,85.128 61.6333333,85.076 61.38,84.972 C61.1266667,84.868 60.908,84.724 60.724,84.54 C60.54,84.356 60.396,84.136 60.292,83.88 C60.188,83.624 60.136,83.344 60.136,83.04 C60.136,82.736 60.188,82.456 60.292,82.2 C60.396,81.944 60.54,81.724 60.724,81.54 C60.908,81.356 61.1266667,81.212 61.38,81.108 C61.6333333,81.004 61.912,80.952 62.216,80.952 Z M62.216,84.16 C62.3493333,84.16 62.4786667,84.1346667 62.604,84.084 C62.7293333,84.0333333 62.84,83.96 62.936,83.864 C63.032,83.768 63.108,83.6506667 63.164,83.512 C63.22,83.3733333 63.248,83.216 63.248,83.04 C63.248,82.864 63.22,82.7066667 63.164,82.568 C63.108,82.4293333 63.032,82.312 62.936,82.216 C62.84,82.12 62.7293333,82.0466667 62.604,81.996 C62.4786667,81.9453333 62.3493333,81.92 62.216,81.92 C62.0773333,81.92 61.9466667,81.9453333 61.824,81.996 C61.7013333,82.0466667 61.592,82.12 61.496,82.216 C61.4,82.312 61.324,82.4293333 61.268,82.568 C61.212,82.7066667 61.184,82.864 61.184,83.04 C61.184,83.216 61.212,83.3733333 61.268,83.512 C61.324,83.6506667 61.4,83.768 61.496,83.864 C61.592,83.96 61.7013333,84.0333333 61.824,84.084 C61.9466667,84.1346667 62.0773333,84.16 62.216,84.16 Z" id="Shape" fill="#000000" fill-rule="nonzero"></path>
                <path d="M67.64,84.488 L67.576,84.488 C67.4533333,84.6853333 67.288,84.8413333 67.08,84.956 C66.872,85.0706667 66.6346667,85.128 66.368,85.128 C65.872,85.128 65.5026667,84.976 65.26,84.672 C65.0173333,84.368 64.896,83.9626667 64.896,83.456 L64.896,81.08 L65.944,81.08 L65.944,83.328 C65.944,83.6106667 66.0066667,83.82 66.132,83.956 C66.2573333,84.092 66.44,84.16 66.68,84.16 C66.824,84.16 66.9506667,84.1293333 67.06,84.068 C67.1693333,84.0066667 67.2626667,83.924 67.34,83.82 C67.4173333,83.716 67.476,83.5933333 67.516,83.452 C67.556,83.3106667 67.576,83.16 67.576,83 L67.576,81.08 L68.624,81.08 L68.624,85 L67.64,85 L67.64,84.488 Z" id="Path" fill="#000000" fill-rule="nonzero"></path>
                <path d="M70.504,81.592 L70.568,81.592 C70.6906667,81.3946667 70.856,81.2386667 71.064,81.124 C71.272,81.0093333 71.5093333,80.952 71.776,80.952 C72.0213333,80.952 72.2373333,80.992 72.424,81.072 C72.6106667,81.152 72.764,81.2653333 72.884,81.412 C73.004,81.5586667 73.0946667,81.7346667 73.156,81.94 C73.2173333,82.1453333 73.248,82.3733333 73.248,82.624 L73.248,85 L72.2,85 L72.2,82.752 C72.2,82.4693333 72.1373333,82.26 72.012,82.124 C71.8866667,81.988 71.704,81.92 71.464,81.92 C71.32,81.92 71.1933333,81.9506667 71.084,82.012 C70.9746667,82.0733333 70.8813333,82.156 70.804,82.26 C70.7266667,82.364 70.668,82.4866667 70.628,82.628 C70.588,82.7693333 70.568,82.92 70.568,83.08 L70.568,85 L69.52,85 L69.52,81.08 L70.504,81.08 L70.504,81.592 Z" id="Path" fill="#000000" fill-rule="nonzero"></path>
                <path d="M74.344,81.976 L73.656,81.976 L73.656,81.08 L74.344,81.08 L74.344,79.88 L75.392,79.88 L75.392,81.08 L76.352,81.08 L76.352,81.976 L75.392,81.976 L75.392,83.496 C75.392,83.5866667 75.4013333,83.6706667 75.42,83.748 C75.4386667,83.8253333 75.4746667,83.8906667 75.528,83.944 C75.6026667,84.0293333 75.7093333,84.072 75.848,84.072 C75.9386667,84.072 76.0106667,84.0626667 76.064,84.044 C76.1173333,84.0253333 76.168,84 76.216,83.968 L76.512,84.888 C76.3893333,84.9466667 76.2573333,84.9906667 76.116,85.02 C75.9746667,85.0493333 75.8186667,85.064 75.648,85.064 C75.4506667,85.064 75.2733333,85.0333333 75.116,84.972 C74.9586667,84.9106667 74.8266667,84.8266667 74.72,84.72 C74.4693333,84.48 74.344,84.1386667 74.344,83.696 L74.344,81.976 Z" id="Path" fill="#000000" fill-rule="nonzero"></path>
                <line x1="17.5" y1="25.5" x2="17.5" y2="108.5" id="Line" stroke="#DFE1E4" stroke-width="0.5" stroke-linecap="square"></line>
                <g id="accept" transform="translate(15.000000, 21.000000)">
                    <path d="M2.5,0 C1.12109375,0 0,1.12109375 0,2.5 C0,3.87890625 1.12109375,5 2.5,5 C3.87890625,5 5,3.87890625 5,2.5 C5,1.12109375 3.87890625,0 2.5,0 Z" id="Path" fill="#2CB77C"></path>
                    <path d="M2.01855469,3.64355469 C1.69921875,3.32421875 1.38183594,3.00195313 1.06152344,2.68261719 C1.02636719,2.64746094 1.02636719,2.58886719 1.06152344,2.55371094 L1.4296875,2.18554688 C1.46484375,2.15039063 1.5234375,2.15039063 1.55859375,2.18554688 L2.08496094,2.71191406 L3.43847656,1.35742188 C3.47460938,1.32226563 3.53222656,1.32226563 3.56835938,1.35742188 L3.9375,1.7265625 C3.97363281,1.76269531 3.97363281,1.8203125 3.9375,1.85546875 L2.14746094,3.64355469 C2.11230469,3.6796875 2.0546875,3.6796875 2.01855469,3.64355469 Z" id="Path" fill="#FFFFFF" fill-rule="nonzero"></path>
                </g>
                <g id="accept" transform="translate(15.000000, 50.000000)">
                    <path d="M2.5,0 C1.12109375,0 0,1.12109375 0,2.5 C0,3.87890625 1.12109375,5 2.5,5 C3.87890625,5 5,3.87890625 5,2.5 C5,1.12109375 3.87890625,0 2.5,0 Z" id="Path" fill="#2CB77C"></path>
                    <path d="M2.01855469,3.64355469 C1.69921875,3.32421875 1.38183594,3.00195313 1.06152344,2.68261719 C1.02636719,2.64746094 1.02636719,2.58886719 1.06152344,2.55371094 L1.4296875,2.18554688 C1.46484375,2.15039063 1.5234375,2.15039063 1.55859375,2.18554688 L2.08496094,2.71191406 L3.43847656,1.35742188 C3.47460938,1.32226563 3.53222656,1.32226563 3.56835938,1.35742188 L3.9375,1.7265625 C3.97363281,1.76269531 3.97363281,1.8203125 3.9375,1.85546875 L2.14746094,3.64355469 C2.11230469,3.6796875 2.0546875,3.6796875 2.01855469,3.64355469 Z" id="Path" fill="#FFFFFF" fill-rule="nonzero"></path>
                </g>
                <g id="accept" transform="translate(15.000000, 80.000000)">
                    <path d="M2.5,0 C1.12109375,0 0,1.12109375 0,2.5 C0,3.87890625 1.12109375,5 2.5,5 C3.87890625,5 5,3.87890625 5,2.5 C5,1.12109375 3.87890625,0 2.5,0 Z" id="Path" fill="#2CB77C"></path>
                    <path d="M2.01855469,3.64355469 C1.69921875,3.32421875 1.38183594,3.00195313 1.06152344,2.68261719 C1.02636719,2.64746094 1.02636719,2.58886719 1.06152344,2.55371094 L1.4296875,2.18554688 C1.46484375,2.15039063 1.5234375,2.15039063 1.55859375,2.18554688 L2.08496094,2.71191406 L3.43847656,1.35742188 C3.47460938,1.32226563 3.53222656,1.32226563 3.56835938,1.35742188 L3.9375,1.7265625 C3.97363281,1.76269531 3.97363281,1.8203125 3.9375,1.85546875 L2.14746094,3.64355469 C2.11230469,3.6796875 2.0546875,3.6796875 2.01855469,3.64355469 Z" id="Path" fill="#FFFFFF" fill-rule="nonzero"></path>
                </g>
            </g>
        </g>
    </g>
</svg>