<?xml version="1.0" encoding="UTF-8"?>
<svg width="360px" height="640px" viewBox="0 0 360 640" version="1.1" xmlns="http://www.w3.org/2000/svg" xmlns:xlink="http://www.w3.org/1999/xlink">
    <title>Google Pixel 6</title>
    <defs>
        <linearGradient x1="50%" y1="100%" x2="50%" y2="-4.88281488e-05%" id="linearGradient-1">
            <stop stop-color="#00B59C" offset="0%"></stop>
            <stop stop-color="#9CFFAC" offset="100%"></stop>
        </linearGradient>
        <linearGradient x1="50%" y1="100%" x2="50%" y2="0%" id="linearGradient-2">
            <stop stop-color="#C3FFE8" offset="0%"></stop>
            <stop stop-color="#F0FFF4" offset="99.73%"></stop>
        </linearGradient>
    </defs>
    <g id="Google-Pixel-6" stroke="none" stroke-width="1" fill="none" fill-rule="evenodd">
        <rect fill="#FFFFFF" x="0" y="0" width="360" height="640"></rect>
        <g id="Unipe-Logo" transform="translate(80.000000, -44.990590)" fill-rule="nonzero">
            <g id="Group-2" transform="translate(0.000000, 303.000000)">
                <path d="M11.102538,18.4620025 L28.8665988,18.4620025 C34.9983612,18.4620025 39.9691368,23.5121318 39.9691368,29.7417821 L39.9691368,48.9174075 C39.9691368,55.1470578 34.9983612,60.1971871 28.8665988,60.1971871 L3.3307614,60.1971871 C1.49123267,60.1971871 0,58.6821483 0,56.8132532 L0,29.7417821 C0,23.5121318 4.97077557,18.4620025 11.102538,18.4620025 Z" id="Rectangle-Copy-5" fill="#030D4E"></path>
                <g id="Group-9-Copy" transform="translate(35.242767, 23.430130) scale(-1, 1) rotate(-135.000000) translate(-35.242767, -23.430130) translate(21.987070, 3.550620)">
                    <path d="M25.919207,21.3308093 L8.3756376,39.1571298 C7.58586241,39.9596297 6.30545017,39.9596297 5.51556011,39.1572465 L0.59230267,34.1552771 C-0.197357635,33.3530106 -0.197472511,32.0521578 0.592187793,31.2498913 L11.7825185,19.8779997 L3.84203264,11.8107515 L0.592417546,8.50925928 C-0.197357635,7.70687608 -0.197357635,6.40602326 0.592417546,5.60364005 L5.51567499,0.601787403 C6.30545017,-0.200595801 7.58586241,-0.200595801 8.3756376,0.601787403 L19.4084728,11.8107515 L25.9190921,18.4253068 C26.7087525,19.2275733 26.7088674,20.5284262 25.919207,21.3308093 Z" id="Path" fill="#02DB81"></path>
                    <path d="M18.7775688,11.1760781 L10.9943488,19.08355 L8.01939495,16.0611038 L3.05707953,11.0131506 L0.592532423,8.50925928 C-0.197242758,7.70687608 -0.197242758,6.40602326 0.592532423,5.60364005 L5.51544524,0.602137534 C6.30533529,-0.20036238 7.58609216,-0.20024567 8.37575247,0.602487665 L15.802615,8.1535152 L18.7775688,11.1760781 Z" id="Path" fill="#2CB77C"></path>
                    <polygon id="Path" fill="#04AA83" points="19.5626369 11.973679 11.7794168 19.8811509 9.89199772 17.9604498 17.6751029 10.0529779"></polygon>
                </g>
                <g id="rupee-indian-copy-2" transform="translate(13.323046, 30.869760)" fill="#FFFFFF">
                    <path d="M13.1893407,4.80828065 C13.1004293,4.71784426 12.9866268,4.67270526 12.8482971,4.67270526 L10.3113858,4.67270526 C10.1431244,3.83892714 9.82660809,3.11517204 9.36178482,2.50223187 L12.8184694,2.50223187 C12.9571629,2.50223187 13.0706536,2.45704007 13.1598768,2.36681485 C13.2484244,2.27643127 13.2929061,2.16075927 13.2929061,2.02011563 L13.2929061,0.48232742 C13.2929061,0.341578196 13.2484764,0.226117375 13.1598768,0.13562819 C13.0705497,0.045350181 12.957059,0 12.8183655,0 L0.474696538,0 C0.336158939,0 0.222512379,0.045350181 0.13344507,0.135575396 C0.0446375837,0.226064581 0,0.341525403 0,0.482274625 L0,2.48697436 C0,2.61758711 0.0469759902,2.7306194 0.140927971,2.82607123 C0.234879951,2.92152307 0.346136141,2.96924899 0.474696538,2.96924899 L2.62597864,2.96924899 C4.71282465,2.96924899 6.03823351,3.53683897 6.60194539,4.67244129 L0.474696538,4.67244129 C0.336158939,4.67244129 0.222356485,4.71758029 0.13344507,4.80801668 C0.0446375837,4.89855866 0,5.01396669 0,5.15471592 L0,6.69229294 C0,6.83293658 0.0444297253,6.94855578 0.13344507,7.03878099 C0.222512379,7.12932297 0.336366798,7.1743564 0.474696538,7.1743564 L6.80995965,7.1743564 C6.59233195,7.99857877 6.08536539,8.62651248 5.28906,9.05863266 C4.49270264,9.49080563 3.44203058,9.70689212 2.13636827,9.70689212 L0.474696538,9.70689212 C0.346136141,9.70689212 0.234879951,9.75467083 0.140927971,9.85006987 C0.0469240257,9.9455745 0,10.0586596 0,10.1891667 L0,12.1036412 C0,12.2344652 0.0444297253,12.3449634 0.13344507,12.4352941 C2.03238712,14.4851856 4.49530087,17.3538618 7.52187454,21.0420616 C7.61099383,21.1627491 7.73456562,21.2229344 7.89284976,21.2229344 L10.7858225,21.2229344 C10.9937328,21.2229344 11.137259,21.132762 11.2161413,20.9515196 C11.3150299,20.7706469 11.2956471,20.5998049 11.1567457,20.438994 C8.26896947,16.8414417 5.99884434,14.1484118 4.34704589,12.3597985 C6.02851613,12.158864 7.39347004,11.6060563 8.4419596,10.7018508 C9.49029325,9.79753967 10.1281586,8.62160263 10.3558155,7.17462037 L12.8482971,7.17462037 C12.9866268,7.17462037 13.1004812,7.12953415 13.1893407,7.03904497 C13.27846,6.94881975 13.3230456,6.83320055 13.3230456,6.69255691 L13.3230456,5.15513826 C13.3230456,5.01423066 13.27846,4.89876984 13.1893407,4.80828065 Z" id="Path"></path>
                </g>
            </g>
            <g id="Group-2-Copy" opacity="0.0428822835" transform="translate(127.000000, 0.000000)">
                <path d="M37.8455422,62.9319616 L98.3984098,62.9319616 C119.299926,62.9319616 136.243952,80.1464836 136.243952,101.381673 L136.243952,166.746181 C136.243952,187.98137 119.299926,205.195892 98.3984098,205.195892 L11.3536627,205.195892 C5.08320792,205.195892 0,200.031535 0,193.660979 L0,101.381673 C0,80.1464836 16.9440264,62.9319616 37.8455422,62.9319616 Z" id="Rectangle-Copy-5" fill="#030D4E"></path>
                <g id="Group-9-Copy" transform="translate(120.133040, 79.866960) scale(-1, 1) rotate(-135.000000) translate(-120.133040, -79.866960) translate(74.947961, 12.103101)">
                    <path d="M88.3515503,72.7109465 L28.550278,133.47604 C25.8581485,136.211545 21.4935703,136.211545 18.8010492,133.476438 L2.01899924,116.42608 C-0.672738677,113.691372 -0.673130257,109.257117 2.01860765,106.522408 L40.1634114,67.7587121 L13.0964477,40.25965 L2.01939082,29.0057581 C-0.672738677,26.2706513 -0.672738677,21.8363967 2.01939082,19.1012898 L18.8014408,2.05133012 C21.4935703,-0.683776706 25.8581485,-0.683776706 28.550278,2.05133012 L66.1582223,40.25965 L88.3511586,62.8068761 C91.0428967,65.5415849 91.0432884,69.9758397 88.3515503,72.7109465 Z" id="Path" fill="#02DB81"></path>
                    <path d="M64.0076418,38.0962207 L37.4767547,65.0506486 L27.3359434,54.747949 L10.4207554,37.5408448 L2.0197824,29.0057581 C-0.672347093,26.2706513 -0.672347093,21.8363967 2.0197824,19.1012898 L18.8006576,2.05252362 C21.4931787,-0.682981039 25.8589317,-0.682583204 28.5506696,2.05371712 L53.8668308,27.793123 L64.0076418,38.0962207 Z" id="Path" fill="#2CB77C"></path>
                    <polygon id="Path" fill="#04AA83" points="66.6837258 40.8150257 40.1528385 67.7694538 33.7191386 61.2223043 60.2496343 34.2678763"></polygon>
                </g>
                <g id="rupee-indian-copy-2" transform="translate(45.414651, 105.226644)" fill="#FFFFFF">
                    <path d="M44.958887,16.3901253 C44.655812,16.0818521 44.2678903,15.9279855 43.7963617,15.9279855 L35.1487187,15.9279855 C34.5751614,13.0858619 33.4962431,10.618777 31.9117866,8.52943011 L43.6946874,8.52943011 C44.1674558,8.52943011 44.5543148,8.37538353 44.8584525,8.06783022 C45.1602874,7.75973707 45.3119133,7.36544259 45.3119133,6.88602656 L45.3119133,1.64412342 C45.3119133,1.16434747 45.1604645,0.770772834 44.8584525,0.462319732 C44.5539606,0.154586473 44.1671015,0 43.6943331,0 L1.61811181,0 C1.1458747,0 0.758484379,0.154586473 0.454878069,0.462139772 C0.152157422,0.770592874 0,1.16416751 0,1.64394346 L0,8.47742142 C0,8.92264485 0.160128416,9.30794129 0.480385249,9.6333107 C0.80064208,9.95868015 1.17988427,10.1213649 1.61811181,10.1213649 L8.9512493,10.1213649 C16.0647416,10.1213649 20.5827011,12.0561253 22.5042421,15.9270857 L1.61811181,15.9270857 C1.1458747,15.9270857 0.757952979,16.0809523 0.454878069,16.3892255 C0.152157422,16.6978585 0,17.0912532 0,17.5710292 L0,22.8122124 C0,23.2916285 0.151448889,23.685743 0.454878069,23.9932963 C0.758484379,24.3019293 1.14658323,24.4554361 1.61811181,24.4554361 L23.2133064,24.4554361 C22.4714725,27.2649867 20.7433609,29.4054425 18.0289717,30.878423 C15.3144054,32.3515835 11.7329491,33.0881638 7.28230028,33.0881638 L1.61811181,33.0881638 C1.17988427,33.0881638 0.80064208,33.2510285 0.480385249,33.5762179 C0.159951283,33.9017673 0,34.2872437 0,34.7321072 L0,41.2580317 C0,41.7039753 0.151448889,42.0806337 0.454878069,42.3885466 C6.92785672,49.3760711 15.323262,59.1546104 25.6400312,71.7266839 C25.9438147,72.1380746 26.3650374,72.34323 26.9045852,72.34323 L36.7659449,72.34323 C37.4746548,72.34323 37.9638966,72.0358568 38.232785,71.4180507 C38.5698696,70.8015046 38.5037988,70.2191507 38.0303216,69.6709897 C28.1866753,57.4079092 20.4484342,48.2281003 14.817901,42.1312023 C20.5495772,41.4462711 25.2023351,39.5618996 28.7763517,36.4797082 C32.349837,33.3971567 34.5241471,29.3887061 35.3001676,24.4563359 L43.7963617,24.4563359 C44.2678903,24.4563359 44.6559891,24.3026492 44.958887,23.9941961 C45.2626706,23.6866428 45.4146507,23.2925283 45.4146507,22.8131122 L45.4146507,17.5724688 C45.4146507,17.092153 45.2626706,16.6985784 44.958887,16.3901253 Z" id="Path"></path>
                </g>
            </g>
            <g id="unipe" transform="translate(54.698243, 314.152115)">
                <path d="M10.1079483,42.7465766 C14.0707235,42.7465766 16.5977106,40.8138856 18.2057932,37.9716931 L18.4355193,41.0981049 C18.4929508,41.837075 18.83754,42.0644504 19.3544237,42.0644504 L26.8779534,42.0644504 C27.3948372,42.0644504 27.8542894,41.6665434 27.8542894,41.1549487 L27.8542894,15.1204646 C27.8542894,14.6088699 27.3948372,14.210963 26.8779534,14.210963 L19.1246976,14.210963 C18.6078139,14.210963 18.2057932,14.6088699 18.2057932,15.1204646 L18.2057932,28.8198329 C18.2057932,32.2873079 16.5977106,33.9926234 13.8984289,33.9926234 C11.0842842,33.9926234 9.64849612,32.2873079 9.64849612,28.8198329 L9.64849612,15.1204646 C9.64849612,14.6088699 9.24647545,14.210963 8.72959173,14.210963 L0.918904392,14.210963 C0.402020671,14.210963 0,14.6088699 0,15.1204646 L0,31.2072747 C0,38.4264439 4.30736434,42.7465766 10.1079483,42.7465766 Z" id="Path" fill="#030D4E"></path>
                <path d="M34.6886408,42.0644504 L42.4993281,42.0644504 C43.0162119,42.0644504 43.4182325,41.6665434 43.4182325,41.1549487 L43.4182325,27.4555804 C43.4182325,23.9881055 44.9688837,22.2827899 47.7255968,22.2827899 C50.5397416,22.2827899 51.9755297,23.9881055 51.9755297,27.4555804 L51.9755297,41.1549487 C51.9755297,41.6665434 52.3775504,42.0644504 52.8944341,42.0644504 L60.6476899,42.0644504 C61.1645737,42.0644504 61.6240259,41.6665434 61.6240259,41.1549487 L61.6240259,25.0681387 C61.6240259,17.8489695 57.2592299,13.5288367 51.458646,13.5288367 C47.4958707,13.5288367 45.0263153,15.4615277 43.4182325,18.3037203 L43.1310749,15.1773085 C43.1310749,14.4383384 42.7290542,14.210963 42.269602,14.210963 L34.6886408,14.210963 C34.1717571,14.210963 33.7697364,14.6088699 33.7697364,15.1204646 L33.7697364,41.1549487 C33.7697364,41.6665434 34.1717571,42.0644504 34.6886408,42.0644504 Z" id="Path" fill="#030D4E"></path>
                <path d="M72.478584,10.2887372 C75.4650233,10.2887372 77.7048527,8.01498312 77.7048527,5.11594667 C77.7048527,2.27375408 75.4650233,0 72.478584,0 C69.4347131,0 67.2523153,2.27375408 67.2523153,5.11594667 C67.2523153,8.01498312 69.4347131,10.2887372 72.478584,10.2887372 Z M67.5969044,41.1549487 C67.5969044,41.6665434 67.9989251,42.0644504 68.5158088,42.0644504 L76.4413591,42.0644504 C76.9582428,42.0644504 77.3602635,41.6665434 77.3602635,41.1549487 L77.3602635,15.1204646 C77.3602635,14.6088699 76.9582428,14.210963 76.4413591,14.210963 L68.5158088,14.210963 C67.9989251,14.210963 67.5969044,14.6088699 67.5969044,15.1204646 L67.5969044,41.1549487 Z" id="Shape" fill="#030D4E"></path>
                <path d="M84.309478,52.8647823 L92.1775968,52.8647823 C92.6944806,52.8647823 93.0965012,52.4668753 93.0965012,51.9552806 L93.0965012,39.6201647 C94.9917416,41.6096995 97.5187287,42.7465766 100.907189,42.7465766 C108.660444,42.7465766 114.001576,36.3800652 114.001576,28.1377067 C114.001576,19.952192 108.660444,13.5288367 100.907189,13.5288367 C96.9444134,13.5288367 94.2451318,14.9499331 92.4647545,17.3942187 L92.3498914,15.1204646 C92.3498914,14.6088699 91.9478707,14.210963 91.430987,14.210963 L84.309478,14.210963 C83.7925942,14.210963 83.3905737,14.6088699 83.3905737,15.1204646 L83.3905737,51.9552806 C83.3905737,52.4668753 83.7925942,52.8647823 84.309478,52.8647823 Z M92.9816382,28.0808628 C92.9816382,24.4997002 95.3363307,22.1691022 98.7247906,22.1691022 C102.055819,22.1691022 104.582806,24.5565441 104.582806,28.1377067 C104.582806,31.7757132 102.055819,34.1063111 98.7247906,34.1063111 C95.3363307,34.1063111 92.9816382,31.7188694 92.9816382,28.0808628 Z" id="Shape" fill="#2CB77C"></path>
                <path d="M132.724254,42.7465766 C136.74446,42.7465766 140.362646,41.6665434 142.717338,39.2791017 C143.291654,38.767507 143.234223,38.3127562 143.004496,37.9716931 L140.362646,34.3336865 C140.075489,33.8789357 139.788331,33.765248 139.328878,33.9926234 C136.974186,35.2431881 135.136377,35.300032 133.528294,35.300032 C130.024972,35.300032 127.555416,34.3336865 126.521648,31.7757132 L141.741002,31.7757132 C144.555147,31.7757132 145.301757,29.8998661 145.301757,26.8871419 C145.301757,19.7248166 140.305214,13.5288367 131.690485,13.5288367 C122.903462,13.5288367 117.102879,19.8385043 117.102879,28.024019 C117.102879,36.6074406 123.477777,42.7465766 132.724254,42.7465766 Z M126.349354,25.2386702 C127.095963,22.3964776 129.278362,21.3164444 131.747918,21.3164444 C134.10261,21.3164444 136.170145,22.2827899 136.74446,25.2386702 L126.349354,25.2386702 Z" id="Shape" fill="#2CB77C"></path>
            </g>
        </g>
        <g id="Made-in-India" transform="translate(156.855333, 609.864000)" fill="#597E8D" fill-rule="nonzero">
            <polygon id="Path" points="1.288 10.136 0 10.136 0 0.112 1.288 0.112 4.774 6.216 4.83 6.216 8.316 0.112 9.604 0.112 9.604 10.136 8.316 10.136 8.316 4.186 8.372 2.506 8.316 2.506 5.18 8.008 4.424 8.008 1.288 2.506 1.232 2.506 1.288 4.186"></polygon>
            <path d="M12.0773333,8.036 C12.0773333,8.372 12.2196667,8.652 12.5043333,8.876 C12.789,9.1 13.1226667,9.212 13.5053333,9.212 C14.0466667,9.212 14.5296667,9.01133333 14.9543333,8.61 C15.379,8.20866667 15.5913333,7.73733333 15.5913333,7.196 C15.19,6.87866667 14.63,6.72 13.9113333,6.72 C13.3886667,6.72 12.9523333,6.846 12.6023333,7.098 C12.2523333,7.35 12.0773333,7.66266667 12.0773333,8.036 Z M13.7433333,3.052 C14.6953333,3.052 15.4466667,3.30633333 15.9973333,3.815 C16.548,4.32366667 16.8233333,5.02133333 16.8233333,5.908 L16.8233333,10.136 L15.5913333,10.136 L15.5913333,9.184 L15.5353333,9.184 C15.0033333,9.968 14.294,10.36 13.4073333,10.36 C12.6513333,10.36 12.019,10.136 11.5103333,9.688 C11.0016667,9.24 10.7473333,8.68 10.7473333,8.008 C10.7473333,7.29866667 11.0156667,6.734 11.5523333,6.314 C12.089,5.894 12.8053333,5.684 13.7013333,5.684 C14.4666667,5.684 15.0966667,5.824 15.5913333,6.104 L15.5913333,5.81 C15.5913333,5.362 15.414,4.98166667 15.0593333,4.669 C14.7046667,4.35633333 14.2893333,4.2 13.8133333,4.2 C13.0946667,4.2 12.5253333,4.50333333 12.1053333,5.11 L10.9713333,4.396 C11.5966667,3.5 12.5206667,3.052 13.7433333,3.052 Z" id="Shape"></path>
            <path d="M21.2426667,9.184 C21.8773333,9.184 22.3953333,8.95533333 22.7966667,8.498 C23.2166667,8.04066667 23.4266667,7.44333333 23.4266667,6.706 C23.4266667,5.98733333 23.2166667,5.39466667 22.7966667,4.928 C22.386,4.46133333 21.868,4.228 21.2426667,4.228 C20.6266667,4.228 20.1086667,4.46133333 19.6886667,4.928 C19.2686667,5.39466667 19.0586667,5.98733333 19.0586667,6.706 C19.0586667,7.434 19.2686667,8.02666667 19.6886667,8.484 C20.1086667,8.95066667 20.6266667,9.184 21.2426667,9.184 Z M21.0326667,10.36 C20.1366667,10.36 19.3666667,10.0053333 18.7226667,9.296 C18.088,8.57733333 17.7706667,7.714 17.7706667,6.706 C17.7706667,5.698 18.088,4.83466667 18.7226667,4.116 C19.3666667,3.40666667 20.1366667,3.052 21.0326667,3.052 C21.5366667,3.052 21.9963333,3.15933333 22.4116667,3.374 C22.827,3.58866667 23.1466667,3.87333333 23.3706667,4.228 L23.4266667,4.228 L23.3706667,3.276 L23.3706667,0.112 L24.6586667,0.112 L24.6586667,10.136 L23.4266667,10.136 L23.4266667,9.184 L23.3706667,9.184 C23.1466667,9.53866667 22.827,9.82333333 22.4116667,10.038 C21.9963333,10.2526667 21.5366667,10.36 21.0326667,10.36 Z" id="Shape"></path>
            <path d="M29.19,10.36 C28.182,10.36 27.3513333,10.0146667 26.698,9.324 C26.0446667,8.63333333 25.718,7.76066667 25.718,6.706 C25.718,5.66066667 26.0353333,4.79033333 26.67,4.095 C27.3046667,3.39966667 28.1166667,3.052 29.106,3.052 C30.1233333,3.052 30.933,3.381 31.535,4.039 C32.137,4.697 32.438,5.61866667 32.438,6.804 L32.424,6.944 L27.034,6.944 C27.0526667,7.616 27.2766667,8.15733333 27.706,8.568 C28.1353333,8.97866667 28.6486667,9.184 29.246,9.184 C30.0673333,9.184 30.7113333,8.77333333 31.178,7.952 L32.326,8.512 C32.018,9.09066667 31.591,9.54333333 31.045,9.87 C30.499,10.1966667 29.8806667,10.36 29.19,10.36 Z M27.132,5.88 L31.066,5.88 C31.0286667,5.404 30.835,5.00966667 30.485,4.697 C30.135,4.38433333 29.666,4.228 29.078,4.228 C28.5926667,4.228 28.175,4.37733333 27.825,4.676 C27.475,4.97466667 27.244,5.376 27.132,5.88 Z" id="Shape"></path>
            <path d="M38.2666667,0.91 C38.2666667,1.162 38.178,1.37666667 38.0006667,1.554 C37.8233333,1.73133333 37.6086667,1.82 37.3566667,1.82 C37.1046667,1.82 36.89,1.73133333 36.7126667,1.554 C36.5353333,1.37666667 36.4466667,1.162 36.4466667,0.91 C36.4466667,0.658 36.5353333,0.443333333 36.7126667,0.266 C36.89,0.0886666667 37.1046667,0 37.3566667,0 C37.6086667,0 37.8233333,0.0886666667 38.0006667,0.266 C38.178,0.443333333 38.2666667,0.658 38.2666667,0.91 Z M38.0006667,3.276 L38.0006667,10.136 L36.7126667,10.136 L36.7126667,3.276 L38.0006667,3.276 Z" id="Shape"></path>
            <path d="M39.634,3.276 L40.866,3.276 L40.866,4.228 L40.922,4.228 C41.118,3.892 41.419,3.612 41.825,3.388 C42.231,3.164 42.6533333,3.052 43.092,3.052 C43.932,3.052 44.5783333,3.29233333 45.031,3.773 C45.4836667,4.25366667 45.71,4.93733333 45.71,5.824 L45.71,10.136 L44.422,10.136 L44.422,5.908 C44.394,4.788 43.8293333,4.228 42.728,4.228 C42.2146667,4.228 41.7853333,4.43566667 41.44,4.851 C41.0946667,5.26633333 40.922,5.76333333 40.922,6.342 L40.922,10.136 L39.634,10.136 L39.634,3.276 Z" id="Path"></path>
            <polygon id="Path" points="51.7206667 10.136 50.4326667 10.136 50.4326667 0.112 51.7206667 0.112"></polygon>
            <path d="M53.466,3.276 L54.698,3.276 L54.698,4.228 L54.754,4.228 C54.95,3.892 55.251,3.612 55.657,3.388 C56.063,3.164 56.4853333,3.052 56.924,3.052 C57.764,3.052 58.4103333,3.29233333 58.863,3.773 C59.3156667,4.25366667 59.542,4.93733333 59.542,5.824 L59.542,10.136 L58.254,10.136 L58.254,5.908 C58.226,4.788 57.6613333,4.228 56.56,4.228 C56.0466667,4.228 55.6173333,4.43566667 55.272,4.851 C54.9266667,5.26633333 54.754,5.76333333 54.754,6.342 L54.754,10.136 L53.466,10.136 L53.466,3.276 Z" id="Path"></path>
            <path d="M64.0873333,9.184 C64.722,9.184 65.24,8.95533333 65.6413333,8.498 C66.0613333,8.04066667 66.2713333,7.44333333 66.2713333,6.706 C66.2713333,5.98733333 66.0613333,5.39466667 65.6413333,4.928 C65.2306667,4.46133333 64.7126667,4.228 64.0873333,4.228 C63.4713333,4.228 62.9533333,4.46133333 62.5333333,4.928 C62.1133333,5.39466667 61.9033333,5.98733333 61.9033333,6.706 C61.9033333,7.434 62.1133333,8.02666667 62.5333333,8.484 C62.9533333,8.95066667 63.4713333,9.184 64.0873333,9.184 Z M63.8773333,10.36 C62.9813333,10.36 62.2113333,10.0053333 61.5673333,9.296 C60.9326667,8.57733333 60.6153333,7.714 60.6153333,6.706 C60.6153333,5.698 60.9326667,4.83466667 61.5673333,4.116 C62.2113333,3.40666667 62.9813333,3.052 63.8773333,3.052 C64.3813333,3.052 64.841,3.15933333 65.2563333,3.374 C65.6716667,3.58866667 65.9913333,3.87333333 66.2153333,4.228 L66.2713333,4.228 L66.2153333,3.276 L66.2153333,0.112 L67.5033333,0.112 L67.5033333,10.136 L66.2713333,10.136 L66.2713333,9.184 L66.2153333,9.184 C65.9913333,9.53866667 65.6716667,9.82333333 65.2563333,10.038 C64.841,10.2526667 64.3813333,10.36 63.8773333,10.36 Z" id="Shape"></path>
            <path d="M70.6906667,0.91 C70.6906667,1.162 70.602,1.37666667 70.4246667,1.554 C70.2473333,1.73133333 70.0326667,1.82 69.7806667,1.82 C69.5286667,1.82 69.314,1.73133333 69.1366667,1.554 C68.9593333,1.37666667 68.8706667,1.162 68.8706667,0.91 C68.8706667,0.658 68.9593333,0.443333333 69.1366667,0.266 C69.314,0.0886666667 69.5286667,0 69.7806667,0 C70.0326667,0 70.2473333,0.0886666667 70.4246667,0.266 C70.602,0.443333333 70.6906667,0.658 70.6906667,0.91 Z M70.4246667,3.276 L70.4246667,10.136 L69.1366667,10.136 L69.1366667,3.276 L70.4246667,3.276 Z" id="Shape"></path>
            <path d="M72.926,8.036 C72.926,8.372 73.0683333,8.652 73.353,8.876 C73.6376667,9.1 73.9713333,9.212 74.354,9.212 C74.8953333,9.212 75.3783333,9.01133333 75.803,8.61 C76.2276667,8.20866667 76.44,7.73733333 76.44,7.196 C76.0386667,6.87866667 75.4786667,6.72 74.76,6.72 C74.2373333,6.72 73.801,6.846 73.451,7.098 C73.101,7.35 72.926,7.66266667 72.926,8.036 Z M74.592,3.052 C75.544,3.052 76.2953333,3.30633333 76.846,3.815 C77.3966667,4.32366667 77.672,5.02133333 77.672,5.908 L77.672,10.136 L76.44,10.136 L76.44,9.184 L76.384,9.184 C75.852,9.968 75.1426667,10.36 74.256,10.36 C73.5,10.36 72.8676667,10.136 72.359,9.688 C71.8503333,9.24 71.596,8.68 71.596,8.008 C71.596,7.29866667 71.8643333,6.734 72.401,6.314 C72.9376667,5.894 73.654,5.684 74.55,5.684 C75.3153333,5.684 75.9453333,5.824 76.44,6.104 L76.44,5.81 C76.44,5.362 76.2626667,4.98166667 75.908,4.669 C75.5533333,4.35633333 75.138,4.2 74.662,4.2 C73.9433333,4.2 73.374,4.50333333 72.954,5.11 L71.82,4.396 C72.4453333,3.5 73.3693333,3.052 74.592,3.052 Z" id="Shape"></path>
        </g>
        <g id="100%-Secure" transform="translate(140.479667, 536.752000)" fill="#597E8D" fill-rule="nonzero">
            <polygon id="Path" points="3.64 0.672 3.64 10.248 2.352 10.248 2.352 2.268 0.49 3.08 0 1.988 2.814 0.672"></polygon>
            <path d="M5.38533333,5.46 C5.38533333,4.004 5.74466667,2.80466667 6.46333333,1.862 C7.182,0.919333333 8.106,0.448 9.23533333,0.448 C10.3646667,0.448 11.2886667,0.924 12.0073333,1.876 C12.726,2.81866667 13.0853333,4.01333333 13.0853333,5.46 C13.0853333,6.89733333 12.726,8.09666667 12.0073333,9.058 C11.2886667,10.0006667 10.3646667,10.472 9.23533333,10.472 C8.106,10.472 7.182,10.0006667 6.46333333,9.058 C5.74466667,8.09666667 5.38533333,6.89733333 5.38533333,5.46 Z M11.7693333,5.46 C11.7693333,4.35866667 11.536,3.45333333 11.0693333,2.744 C10.612,2.03466667 10.0006667,1.68 9.23533333,1.68 C8.47,1.68 7.85866667,2.03466667 7.40133333,2.744 C6.93466667,3.45333333 6.70133333,4.35866667 6.70133333,5.46 C6.70133333,6.56133333 6.93466667,7.47133333 7.40133333,8.19 C7.85866667,8.89 8.47,9.24 9.23533333,9.24 C10.0006667,9.24 10.612,8.88533333 11.0693333,8.176 C11.536,7.45733333 11.7693333,6.552 11.7693333,5.46 Z" id="Shape"></path>
            <path d="M14.2706667,5.46 C14.2706667,4.004 14.63,2.80466667 15.3486667,1.862 C16.0673333,0.919333333 16.9913333,0.448 18.1206667,0.448 C19.25,0.448 20.174,0.924 20.8926667,1.876 C21.6113333,2.81866667 21.9706667,4.01333333 21.9706667,5.46 C21.9706667,6.89733333 21.6113333,8.09666667 20.8926667,9.058 C20.174,10.0006667 19.25,10.472 18.1206667,10.472 C16.9913333,10.472 16.0673333,10.0006667 15.3486667,9.058 C14.63,8.09666667 14.2706667,6.89733333 14.2706667,5.46 Z M20.6546667,5.46 C20.6546667,4.35866667 20.4213333,3.45333333 19.9546667,2.744 C19.4973333,2.03466667 18.886,1.68 18.1206667,1.68 C17.3553333,1.68 16.744,2.03466667 16.2866667,2.744 C15.82,3.45333333 15.5866667,4.35866667 15.5866667,5.46 C15.5866667,6.56133333 15.82,7.47133333 16.2866667,8.19 C16.744,8.89 17.3553333,9.24 18.1206667,9.24 C18.886,9.24 19.4973333,8.88533333 19.9546667,8.176 C20.4213333,7.45733333 20.6546667,6.552 20.6546667,5.46 Z" id="Shape"></path>
            <path d="M27.776,2.842 C27.776,3.49533333 27.538,4.06 27.062,4.536 C26.5953333,5.00266667 26.0353333,5.236 25.382,5.236 C24.738,5.236 24.1733333,5.00266667 23.688,4.536 C23.2213333,4.05066667 22.988,3.486 22.988,2.842 C22.988,2.18866667 23.2213333,1.62866667 23.688,1.162 C24.164,0.686 24.7286667,0.448 25.382,0.448 C26.0353333,0.448 26.5953333,0.686 27.062,1.162 C27.538,1.62866667 27.776,2.18866667 27.776,2.842 Z M31.738,1.092 L25.522,10.36 L24.724,9.842 L30.954,0.56 L31.738,1.092 Z M26.74,2.842 C26.74,2.422 26.6116667,2.07433333 26.355,1.799 C26.0983333,1.52366667 25.774,1.386 25.382,1.386 C24.9993333,1.386 24.6773333,1.526 24.416,1.806 C24.1546667,2.07666667 24.024,2.422 24.024,2.842 C24.024,3.262 24.1546667,3.60733333 24.416,3.878 C24.6773333,4.158 24.9993333,4.298 25.382,4.298 C25.774,4.298 26.0983333,4.16033333 26.355,3.885 C26.6116667,3.60966667 26.74,3.262 26.74,2.842 Z M33.488,8.078 C33.488,8.73133333 33.25,9.296 32.774,9.772 C32.3073333,10.2386667 31.7473333,10.472 31.094,10.472 C30.45,10.472 29.8853333,10.2386667 29.4,9.772 C28.9333333,9.28666667 28.7,8.722 28.7,8.078 C28.7,7.42466667 28.9333333,6.86466667 29.4,6.398 C29.876,5.922 30.4406667,5.684 31.094,5.684 C31.7473333,5.684 32.3073333,5.922 32.774,6.398 C33.25,6.86466667 33.488,7.42466667 33.488,8.078 Z M32.452,8.078 C32.452,7.658 32.3236667,7.31033333 32.067,7.035 C31.8103333,6.75966667 31.486,6.622 31.094,6.622 C30.7113333,6.622 30.3893333,6.762 30.128,7.042 C29.8666667,7.31266667 29.736,7.658 29.736,8.078 C29.736,8.498 29.8666667,8.84333333 30.128,9.114 C30.3893333,9.394 30.7113333,9.534 31.094,9.534 C31.486,9.534 31.8103333,9.39633333 32.067,9.121 C32.3236667,8.84566667 32.452,8.498 32.452,8.078 Z" id="Shape"></path>
            <path d="M43.6986667,7.574 C43.6986667,8.45133333 43.3766667,9.156 42.7326667,9.688 C42.0793333,10.2106667 41.286,10.472 40.3526667,10.472 C39.522,10.472 38.7893333,10.2293333 38.1546667,9.744 C37.52,9.25866667 37.0813333,8.596 36.8386667,7.756 L38.0706667,7.252 C38.1546667,7.55066667 38.2713333,7.82133333 38.4206667,8.064 C38.57,8.30666667 38.745,8.51433333 38.9456667,8.687 C39.1463333,8.85966667 39.368,8.995 39.6106667,9.093 C39.8533333,9.191 40.11,9.24 40.3806667,9.24 C40.9686667,9.24 41.4493333,9.08833333 41.8226667,8.785 C42.196,8.48166667 42.3826667,8.078 42.3826667,7.574 C42.3826667,7.154 42.2286667,6.79466667 41.9206667,6.496 C41.6313333,6.20666667 41.09,5.92666667 40.2966667,5.656 C39.494,5.36666667 38.9946667,5.17066667 38.7986667,5.068 C37.7346667,4.52666667 37.2026667,3.72866667 37.2026667,2.674 C37.2026667,1.93666667 37.4966667,1.30666667 38.0846667,0.784 C38.682,0.261333333 39.4146667,0 40.2826667,0 C41.048,0 41.7106667,0.196 42.2706667,0.588 C42.8306667,0.970666667 43.204,1.45133333 43.3906667,2.03 L42.1866667,2.534 C42.0746667,2.16066667 41.853,1.85033333 41.5216667,1.603 C41.1903333,1.35566667 40.7866667,1.232 40.3106667,1.232 C39.8066667,1.232 39.382,1.372 39.0366667,1.652 C38.6913333,1.91333333 38.5186667,2.254 38.5186667,2.674 C38.5186667,3.01933333 38.654,3.318 38.9246667,3.57 C39.2233333,3.822 39.872,4.12066667 40.8706667,4.466 C41.888,4.81133333 42.6136667,5.23366667 43.0476667,5.733 C43.4816667,6.23233333 43.6986667,6.846 43.6986667,7.574 Z" id="Path"></path>
            <path d="M48.062,10.472 C47.054,10.472 46.2233333,10.1266667 45.57,9.436 C44.9166667,8.74533333 44.59,7.87266667 44.59,6.818 C44.59,5.77266667 44.9073333,4.90233333 45.542,4.207 C46.1766667,3.51166667 46.9886667,3.164 47.978,3.164 C48.9953333,3.164 49.805,3.493 50.407,4.151 C51.009,4.809 51.31,5.73066667 51.31,6.916 L51.296,7.056 L45.906,7.056 C45.9246667,7.728 46.1486667,8.26933333 46.578,8.68 C47.0073333,9.09066667 47.5206667,9.296 48.118,9.296 C48.9393333,9.296 49.5833333,8.88533333 50.05,8.064 L51.198,8.624 C50.89,9.20266667 50.463,9.65533333 49.917,9.982 C49.371,10.3086667 48.7526667,10.472 48.062,10.472 Z M46.004,5.992 L49.938,5.992 C49.9006667,5.516 49.707,5.12166667 49.357,4.809 C49.007,4.49633333 48.538,4.34 47.95,4.34 C47.4646667,4.34 47.047,4.48933333 46.697,4.788 C46.347,5.08666667 46.116,5.488 46.004,5.992 Z" id="Shape"></path>
            <path d="M55.6453333,10.472 C54.628,10.472 53.7833333,10.1266667 53.1113333,9.436 C52.4486667,8.72666667 52.1173333,7.854 52.1173333,6.818 C52.1173333,5.76333333 52.4486667,4.89066667 53.1113333,4.2 C53.7833333,3.50933333 54.628,3.164 55.6453333,3.164 C56.3453333,3.164 56.9566667,3.339 57.4793333,3.689 C58.002,4.039 58.394,4.522 58.6553333,5.138 L57.4793333,5.628 C57.1153333,4.76933333 56.476,4.34 55.5613333,4.34 C54.9733333,4.34 54.4646667,4.578 54.0353333,5.054 C53.6153333,5.53 53.4053333,6.118 53.4053333,6.818 C53.4053333,7.518 53.6153333,8.106 54.0353333,8.582 C54.4646667,9.058 54.9733333,9.296 55.5613333,9.296 C56.504,9.296 57.1666667,8.86666667 57.5493333,8.008 L58.6973333,8.498 C58.4453333,9.114 58.051,9.597 57.5143333,9.947 C56.9776667,10.297 56.3546667,10.472 55.6453333,10.472 Z" id="Path"></path>
            <path d="M65.7906667,10.248 L64.5586667,10.248 L64.5586667,9.296 L64.5026667,9.296 C64.3066667,9.632 64.0056667,9.912 63.5996667,10.136 C63.1936667,10.36 62.7713333,10.472 62.3326667,10.472 C61.4926667,10.472 60.8463333,10.2316667 60.3936667,9.751 C59.941,9.27033333 59.7146667,8.58666667 59.7146667,7.7 L59.7146667,3.388 L61.0026667,3.388 L61.0026667,7.616 C61.0306667,8.736 61.5953333,9.296 62.6966667,9.296 C63.21,9.296 63.6393333,9.08833333 63.9846667,8.673 C64.33,8.25766667 64.5026667,7.76066667 64.5026667,7.182 L64.5026667,3.388 L65.7906667,3.388 L65.7906667,10.248 Z" id="Path"></path>
            <path d="M68.6,10.248 L67.312,10.248 L67.312,3.388 L68.544,3.388 L68.544,4.508 L68.6,4.508 C68.7306667,4.144 68.999,3.83366667 69.405,3.577 C69.811,3.32033333 70.21,3.192 70.602,3.192 C70.9753333,3.192 71.2926667,3.248 71.554,3.36 L71.162,4.606 C71.0033333,4.54066667 70.7513333,4.508 70.406,4.508 C69.9206667,4.508 69.4983333,4.704 69.139,5.096 C68.7796667,5.488 68.6,5.94533333 68.6,6.468 L68.6,10.248 Z" id="Path"></path>
            <path d="M75.0073333,10.472 C73.9993333,10.472 73.1686667,10.1266667 72.5153333,9.436 C71.862,8.74533333 71.5353333,7.87266667 71.5353333,6.818 C71.5353333,5.77266667 71.8526667,4.90233333 72.4873333,4.207 C73.122,3.51166667 73.934,3.164 74.9233333,3.164 C75.9406667,3.164 76.7503333,3.493 77.3523333,4.151 C77.9543333,4.809 78.2553333,5.73066667 78.2553333,6.916 L78.2413333,7.056 L72.8513333,7.056 C72.87,7.728 73.094,8.26933333 73.5233333,8.68 C73.9526667,9.09066667 74.466,9.296 75.0633333,9.296 C75.8846667,9.296 76.5286667,8.88533333 76.9953333,8.064 L78.1433333,8.624 C77.8353333,9.20266667 77.4083333,9.65533333 76.8623333,9.982 C76.3163333,10.3086667 75.698,10.472 75.0073333,10.472 Z M72.9493333,5.992 L76.8833333,5.992 C76.846,5.516 76.6523333,5.12166667 76.3023333,4.809 C75.9523333,4.49633333 75.4833333,4.34 74.8953333,4.34 C74.41,4.34 73.9923333,4.48933333 73.6423333,4.788 C73.2923333,5.08666667 73.0613333,5.488 72.9493333,5.992 Z" id="Shape"></path>
        </g>
        <g id="india" transform="translate(125.000000, 604.000000)" fill-rule="nonzero">
            <path d="M19.9999558,15.1035774 L19.9985427,7.50641427 L19.9983661,6.4299688 C19.9982336,5.873243 19.7012131,5.3588667 19.2189853,5.08057004 L10.7773053,0.208656275 C10.2951658,-0.0696403837 9.70112476,-0.0695520636 9.21902945,0.208921235 L0.778939187,5.08361708 C0.296843881,5.36204622 -1.25510421e-15,5.87651085 -1.25510421e-15,6.43323664 L-1.25510421e-15,7.50637011 L0.00145728177,15.1035333 L0.00163392199,16.1799787 C0.00172224209,16.7366604 0.298786923,17.2510367 0.78097055,17.5293333 L9.22265057,22.4012913 C9.70487836,22.6795879 10.2988311,22.6794113 10.7809264,22.4010263 L19.2210167,17.5262421 C19.703112,17.247813 19.9999558,16.7333484 19.9999558,16.1765784 L19.9999558,15.1035774 Z" id="Path" fill="#F5F5F5"></path>
            <path d="M19.9985427,6.42992464 C19.9982336,5.87319884 19.7012131,5.35882254 19.2189853,5.08052588 L10.7773053,0.208656275 C10.2951658,-0.0696403837 9.70112476,-0.0695520636 9.21902945,0.208921235 L0.778939187,5.08361708 C0.296843881,5.36204622 -1.25510421e-15,5.87651085 -1.25510421e-15,6.43323664 L-1.25510421e-15,7.50637011 L19.9985427,7.50637011 L19.9985427,6.42992464 Z" id="Path" fill="#FAB446"></path>
            <path d="M0.00150144183,16.1800229 C0.00176640215,16.7367487 0.298786923,17.251125 0.78101471,17.5294217 L9.22269473,22.4013796 C9.70492252,22.6796762 10.2988752,22.6794996 10.7809705,22.4011146 L19.2210608,17.5263305 C19.7031561,17.2479013 20,16.7334367 20,16.1766667 L20,15.1035333 L0.00150144183,15.1035333 L0.00150144183,16.1800229 Z" id="Path" fill="#73AF00"></path>
            <path d="M10,8.93203328 C8.69149345,8.93203328 7.62705951,9.99651138 7.62705951,11.3049738 C7.62705951,12.6134362 8.69153761,13.6779143 10,13.6779143 C11.3084624,13.6779143 12.3729846,12.6134362 12.3729846,11.3049738 C12.3729846,9.99651138 11.3085066,8.93203328 10,8.93203328 Z M10.2333859,10.9557119 L10.3626865,10.7152604 L10.7856074,9.5411329 C10.9871097,9.63126357 11.1702856,9.75473508 11.3283344,9.90474679 L10.4060075,10.7442294 L10.2333859,10.9557119 Z M10.1606101,10.6315329 L10.0819611,10.8930046 L10.1093845,10.621332 L10.0507841,9.37482614 C10.2760887,9.38065527 10.4918988,9.4251686 10.6918114,9.50213958 L10.1606101,10.6315329 Z M9.91803894,10.8930046 L9.83938988,10.6315329 L9.30814444,9.50209542 C9.50810116,9.42512444 9.72386718,9.38061111 9.94917178,9.37478198 L9.89061555,10.6212878 L9.91803894,10.8930046 Z M9.63731348,10.7152604 L9.76661412,10.9557119 L9.59390415,10.7442294 L8.67157726,9.90474679 C8.8296261,9.75473508 9.01284616,9.63117525 9.21430432,9.5411329 L9.63731348,10.7152604 Z M9.31635821,11.4143582 L9.58803086,11.3869348 L9.32655918,11.4655839 L8.19712165,11.9967852 C8.12015067,11.7968726 8.07563734,11.5811507 8.06980821,11.3557578 L9.31635821,11.4143582 Z M8.06985237,11.2541897 C8.0756815,11.0288851 8.12019483,10.8130749 8.19716581,10.6131624 L9.32660334,11.1443637 L9.58807502,11.2230127 L9.31640237,11.1955893 L8.06985237,11.2541897 Z M9.76661412,11.6542356 L9.63731348,11.8947313 L9.21439264,13.0688588 C9.01289032,12.9787281 8.82971442,12.8552566 8.67166558,12.7052449 L9.59399247,11.8657623 L9.76661412,11.6542356 Z M9.8394782,11.9784587 L9.91812726,11.7169871 L9.89070387,11.9886156 L9.9492601,13.2351214 C9.7239555,13.2292923 9.50814532,13.1847789 9.30823276,13.107808 L9.8394782,11.9784587 Z M10.0819611,11.7169871 L10.1606101,11.9784587 L10.6918556,13.1078963 C10.4918988,13.1848673 10.2761328,13.2293806 10.0508282,13.2352097 L10.1094286,11.9887039 L10.0819611,11.7169871 Z M10.3626865,11.8947313 L10.2333859,11.6542356 L10.4060959,11.8657181 L11.3284227,12.7052008 C11.1703739,12.8552125 10.9871538,12.9787723 10.7856957,13.0688146 L10.3626865,11.8947313 Z M10.6836418,11.1955893 L10.4119691,11.2230127 L10.6734408,11.1443637 L11.8028784,10.6131624 C11.8798493,10.8130308 11.9243627,11.0288851 11.9301918,11.2541897 L10.6836418,11.1955893 Z M11.9302359,11.355802 C11.9244068,11.5811066 11.8798935,11.7969168 11.8029225,11.9968293 L10.673485,11.465628 L10.4120133,11.386979 L10.683686,11.4144024 L11.9302359,11.355802 Z M11.763885,10.5194106 L10.5897575,10.9423314 L10.3492619,11.071632 L10.5607885,10.8989221 L11.4002711,9.97659519 C11.5502828,10.134644 11.6738427,10.3179082 11.763885,10.5194106 Z M8.59981718,9.97659519 L9.4392998,10.8989221 L9.65082646,11.071632 L9.4103308,10.9423314 L8.2362033,10.5194106 C8.32624564,10.3179082 8.44976131,10.134644 8.59981718,9.97659519 Z M8.23611498,12.0905811 L9.41024248,11.6676603 L9.65073814,11.5383597 L9.43921148,11.7110696 L8.59972886,12.6333965 C8.44976131,12.4752594 8.32624564,12.2920393 8.23611498,12.0905811 Z M11.4002711,12.6333965 L10.5607885,11.7110696 L10.3492619,11.5383597 L10.5897575,11.6676603 L11.763885,12.0905811 C11.6738427,12.2920393 11.5502828,12.4752594 11.4002711,12.6333965 Z" id="Shape" fill="#41479B"></path>
        </g>
        <g id="insurance" transform="translate(160.000000, 470.000000)" fill-rule="nonzero">
            <path d="M38.4615385,8.37135897 C29.9459487,8.37135897 21.1209231,0.477923077 21.0335385,0.398846154 C20.4469744,-0.132948718 19.5529231,-0.132948718 18.9664615,0.398846154 C18.8785641,0.478538462 10.0767179,8.37135897 1.53846154,8.37135897 C0.688820513,8.37135897 0,9.06017949 0,9.90982051 L0,28.3342308 C0,43.2597692 11.1011282,49.2238718 19.4512821,52.4116667 C19.628,52.4791538 19.8139487,52.5127949 20,52.5127949 C20.1860513,52.5127949 20.372,52.4790513 20.5487179,52.4116667 C32.2568205,47.9419231 40,40.9697179 40,28.3342308 L40,9.90982051 C40,9.06017949 39.3111795,8.37135897 38.4615385,8.37135897 Z" id="Path" fill="url(#linearGradient-1)"></path>
            <path d="M20,15.4871538 C14.0618462,15.4871538 9.23076923,20.3182308 9.23076923,26.2563846 C9.23076923,32.1945385 14.0618462,37.0256154 20,37.0256154 C25.9381538,37.0256154 30.7692308,32.1945385 30.7692308,26.2563846 C30.7692308,20.3182308 25.9381538,15.4871538 20,15.4871538 Z M24.1647179,25.8057179 L19.5493333,30.4211026 C19.2490256,30.7215128 18.8552821,30.8717692 18.4615385,30.8717692 C18.0677949,30.8717692 17.6740513,30.7216154 17.3737436,30.4211026 L15.8352821,28.882641 C15.2344615,28.2818205 15.2344615,27.3077692 15.8352821,26.7069487 C16.436,26.1061282 17.4101538,26.1061282 18.0109744,26.7069487 L18.461641,27.1575128 L21.9892308,23.6300256 C22.5899487,23.0292051 23.5641026,23.0292051 24.1649231,23.6300256 C24.765641,24.2308462 24.765641,25.2048974 24.1647179,25.8057179 L24.1647179,25.8057179 Z" id="Shape" fill="url(#linearGradient-2)"></path>
        </g>
    </g>
</svg>